<?xml version="1.0" encoding="UTF-8" standalone="no"?>
<!-- Generator: Adobe Illustrator 19.0.0, SVG Export Plug-In . SVG Version: 6.00 Build 0)  -->

<svg
   xmlns:dc="http://purl.org/dc/elements/1.1/"
   xmlns:cc="http://creativecommons.org/ns#"
   xmlns:rdf="http://www.w3.org/1999/02/22-rdf-syntax-ns#"
   xmlns:svg="http://www.w3.org/2000/svg"
   xmlns="http://www.w3.org/2000/svg"
   xmlns:sodipodi="http://sodipodi.sourceforge.net/DTD/sodipodi-0.dtd"
   xmlns:inkscape="http://www.inkscape.org/namespaces/inkscape"
   version="1.0"
   x="0px"
   y="0px"
   viewBox="0 0 48.900002 80.599998"
   enable-background="new 0 0 144 144"
   xml:space="preserve"
   id="svg545"
   sodipodi:docname="Icon_RH_Software_Container-Deployed_RGB_Shiny.svg"
   width="48.900002"
   height="80.599998"
   inkscape:version="0.92.1 r"><metadata
     id="metadata551"><rdf:RDF><cc:Work
         rdf:about=""><dc:format>image/svg+xml</dc:format><dc:type
           rdf:resource="http://purl.org/dc/dcmitype/StillImage" /></cc:Work></rdf:RDF></metadata><defs
     id="defs549" /><sodipodi:namedview
     pagecolor="#ffffff"
     bordercolor="#666666"
     borderopacity="1"
     objecttolerance="10"
     gridtolerance="10"
     guidetolerance="10"
     inkscape:pageopacity="0"
     inkscape:pageshadow="2"
     inkscape:window-width="1920"
     inkscape:window-height="1016"
     id="namedview547"
     showgrid="false"
     inkscape:zoom="1.6388889"
     inkscape:cx="25.720339"
     inkscape:cy="40.2"
     inkscape:window-x="0"
     inkscape:window-y="27"
     inkscape:window-maximized="1"
     inkscape:current-layer="svg545" /><g
     id="template"
     display="none"
     style="display:none"
     transform="translate(-47.5,-31.6)"><circle
       display="inline"
       stroke-miterlimit="10"
       cx="72"
       cy="72"
       r="36"
       id="circle258"
       style="display:inline;fill:none;stroke:#ffffff;stroke-width:0.25;stroke-miterlimit:10" /><g
       display="inline"
       id="g262"
       style="display:inline"><circle
         stroke-miterlimit="10"
         cx="72"
         cy="72"
         r="40.5"
         id="circle260"
         style="fill:none;stroke:#ffffff;stroke-width:0.25;stroke-linecap:round;stroke-miterlimit:10;stroke-dasharray:1.9875, 1.9875" /></g><line
       display="inline"
       stroke-miterlimit="10"
       x1="72"
       y1="18"
       x2="72"
       y2="126"
       id="line264"
       style="display:inline;fill:none;stroke:#ffffff;stroke-width:0.25;stroke-miterlimit:10" /><line
       display="inline"
       stroke-miterlimit="10"
       x1="126"
       y1="72"
       x2="18"
       y2="72"
       id="line266"
       style="display:inline;fill:none;stroke:#ffffff;stroke-width:0.25;stroke-miterlimit:10" /><line
       display="inline"
       stroke-miterlimit="10"
       x1="110.2"
       y1="33.799999"
       x2="33.799999"
       y2="110.2"
       id="line268"
       style="display:inline;fill:none;stroke:#ffffff;stroke-width:0.25;stroke-miterlimit:10" /><line
       display="inline"
       stroke-miterlimit="10"
       x1="110.2"
       y1="110.2"
       x2="33.799999"
       y2="33.799999"
       id="line270"
       style="display:inline;fill:none;stroke:#ffffff;stroke-width:0.25;stroke-miterlimit:10" /></g><g
     id="icon"
     transform="translate(-47.5,-31.6)"><linearGradient
       id="SVGID_1_"
       gradientUnits="userSpaceOnUse"
       x1="40.863201"
       y1="42.765598"
       x2="103.1544"
       y2="105.0568"><stop
         offset="0"
         style="stop-color:#E6E6E6"
         id="stop273" /><stop
         offset="0.5"
         style="stop-color:#F2F2F2"
         id="stop275" /><stop
         offset="1"
         style="stop-color:#BFBFBF"
         id="stop277" /></linearGradient><path
       d="m 47.6,111.4 c 0,0.5 0.4,0.8 0.8,0.8 h 47.2 c 0.5,0 0.8,-0.4 0.8,-0.8 V 37 c 0,-0.9 -0.6,-1.8 -1.4,-2.2 L 87.9,31.6 H 57.2 L 49,34.8 C 48.1,35.2 47.5,36 47.5,37 Z"
       id="path280"
       inkscape:connector-curvature="0"
       style="fill:url(#SVGID_1_)" /><g
       id="g542"><g
         id="g540"><rect
           x="85.099998"
           y="101.7"
           width="1.6"
           height="5.6999998"
           id="rect282"
           style="fill:none" /><path
           d="m 50,97 h 44 c 0.4,0 0.8,-0.4 0.8,-0.8 V 95.9 84.5 C 94.8,84 94.5,83.7 94,83.7 H 50 c -0.4,0 -0.8,0.4 -0.8,0.8 V 96 96.2 c 0,0.4 0.4,0.8 0.8,0.8 z"
           id="path284"
           inkscape:connector-curvature="0"
           style="fill:none" /><rect
           x="90.099998"
           y="101.7"
           width="1.6"
           height="5.6999998"
           id="rect286"
           style="fill:none" /><polygon
           points="50.1,36.2 94.1,36.2 87.6,33.3 57.5,33.3 "
           id="polygon288"
           style="fill:none" /><path
           d="m 94,82 c 0.3,0 0.5,0.1 0.8,0.1 V 37.9 H 49.2 v 44.3 c 0.2,-0.1 0.5,-0.1 0.8,-0.1 H 94 Z M 59.2,72 c 0,0.2 -0.2,0.4 -0.4,0.4 -0.2,0 -0.4,-0.2 -0.4,-0.4 v -0.8 c 0,-0.2 0.2,-0.4 0.4,-0.4 0.2,0 0.4,0.2 0.4,0.4 z m 0,-2.5 c 0,0.2 -0.2,0.4 -0.4,0.4 -0.2,0 -0.4,-0.2 -0.4,-0.4 v -0.8 c 0,-0.2 0.2,-0.4 0.4,-0.4 0.2,0 0.4,0.2 0.4,0.4 z M 58.8,51 c 0.2,0 0.4,0.2 0.4,0.4 v 0.8 c 0,0.2 -0.2,0.4 -0.4,0.4 -0.2,0 -0.4,-0.2 -0.4,-0.4 v -0.8 c 0,-0.3 0.2,-0.4 0.4,-0.4 z m -0.4,-1.3 v -0.8 c 0,-0.2 0.2,-0.4 0.4,-0.4 0.2,0 0.4,0.2 0.4,0.4 v 0.8 c 0,0.2 -0.2,0.4 -0.4,0.4 -0.2,0 -0.4,-0.2 -0.4,-0.4 z m 0.4,3.7 c 0.2,0 0.4,0.2 0.4,0.4 v 0.8 c 0,0.2 -0.2,0.4 -0.4,0.4 -0.2,0 -0.4,-0.2 -0.4,-0.4 v -0.8 c 0,-0.2 0.2,-0.4 0.4,-0.4 z m 0,2.5 c 0.2,0 0.4,0.2 0.4,0.4 v 0.8 c 0,0.2 -0.2,0.4 -0.4,0.4 -0.2,0 -0.4,-0.2 -0.4,-0.4 v -0.8 c 0,-0.2 0.2,-0.4 0.4,-0.4 z m 0,2.5 c 0.2,0 0.4,0.2 0.4,0.4 v 0.8 c 0,0.2 -0.2,0.4 -0.4,0.4 -0.2,0 -0.4,-0.2 -0.4,-0.4 v -0.8 c 0,-0.2 0.2,-0.4 0.4,-0.4 z m 0,2.5 c 0.2,0 0.4,0.2 0.4,0.4 v 0.8 c 0,0.2 -0.2,0.4 -0.4,0.4 -0.2,0 -0.4,-0.2 -0.4,-0.4 v -0.8 c 0,-0.3 0.2,-0.4 0.4,-0.4 z m 0,2.4 c 0.2,0 0.4,0.2 0.4,0.4 v 0.8 c 0,0.2 -0.2,0.4 -0.4,0.4 -0.2,0 -0.4,-0.2 -0.4,-0.4 v -0.8 c 0,-0.2 0.2,-0.4 0.4,-0.4 z m 0,2.5 c 0.2,0 0.4,0.2 0.4,0.4 V 67 c 0,0.2 -0.2,0.4 -0.4,0.4 -0.2,0 -0.4,-0.2 -0.4,-0.4 v -0.8 c 0,-0.2 0.2,-0.4 0.4,-0.4 z m 1.7,7.8 h -0.9 c -0.2,-0.1 -0.3,-0.2 -0.3,-0.4 0,-0.2 0.2,-0.4 0.4,-0.4 h 0.8 c 0.2,0 0.4,0.2 0.4,0.4 0,0.2 -0.1,0.4 -0.4,0.4 z m 2.5,0 h -0.8 c -0.2,0 -0.4,-0.2 -0.4,-0.4 0,-0.2 0.2,-0.4 0.4,-0.4 H 63 c 0.2,0 0.4,0.2 0.4,0.4 0,0.2 -0.2,0.4 -0.4,0.4 z m 1.4,3.5 c 0,0.2 -0.2,0.4 -0.4,0.4 -0.2,0 -0.4,-0.2 -0.4,-0.4 v -0.8 c 0,-0.2 0.2,-0.4 0.4,-0.4 0.2,0 0.4,0.2 0.4,0.4 z m 0,-2.5 c 0,0.2 -0.2,0.4 -0.4,0.4 -0.2,0 -0.4,-0.2 -0.4,-0.4 v -0.8 c 0,-0.2 0.2,-0.4 0.4,-0.4 0.2,0 0.4,0.2 0.4,0.4 z M 63.9,56.1 c 0.2,0 0.4,0.2 0.4,0.4 v 0.8 c 0,0.2 -0.2,0.4 -0.4,0.4 -0.2,0 -0.4,-0.2 -0.4,-0.4 v -0.8 c 0,-0.2 0.2,-0.4 0.4,-0.4 z M 63.5,54.8 V 54 c 0,-0.2 0.2,-0.4 0.4,-0.4 0.2,0 0.4,0.2 0.4,0.4 v 0.8 c 0,0.2 -0.2,0.4 -0.4,0.4 -0.2,0 -0.4,-0.1 -0.4,-0.4 z m 0.4,3.8 c 0.2,0 0.4,0.2 0.4,0.4 v 0.8 c 0,0.2 -0.2,0.4 -0.4,0.4 -0.2,0 -0.4,-0.2 -0.4,-0.4 V 59 c 0,-0.3 0.2,-0.4 0.4,-0.4 z m 0,2.4 c 0.2,0 0.4,0.2 0.4,0.4 v 0.8 c 0,0.2 -0.2,0.4 -0.4,0.4 -0.2,0 -0.4,-0.2 -0.4,-0.4 v -0.8 c 0,-0.2 0.2,-0.4 0.4,-0.4 z m 0,2.5 c 0.2,0 0.4,0.2 0.4,0.4 v 0.8 c 0,0.2 -0.2,0.4 -0.4,0.4 -0.2,0 -0.4,-0.2 -0.4,-0.4 v -0.8 c 0,-0.2 0.2,-0.4 0.4,-0.4 z m 0,2.5 c 0.2,0 0.4,0.2 0.4,0.4 v 0.8 c 0,0.2 -0.2,0.4 -0.4,0.4 -0.2,0 -0.4,-0.2 -0.4,-0.4 v -0.8 c 0,-0.2 0.2,-0.4 0.4,-0.4 z m 0,2.5 c 0.2,0 0.4,0.2 0.4,0.4 v 0.8 c 0,0.2 -0.2,0.4 -0.4,0.4 -0.2,0 -0.4,-0.2 -0.4,-0.4 v -0.8 c 0,-0.3 0.2,-0.4 0.4,-0.4 z m 0,2.4 c 0.2,0 0.4,0.2 0.4,0.4 v 0.8 c 0,0.2 -0.2,0.4 -0.4,0.4 -0.2,0 -0.4,-0.2 -0.4,-0.4 v -0.8 c 0,-0.2 0.2,-0.4 0.4,-0.4 z m 0.3,2.2 c 0,-0.2 0.2,-0.4 0.4,-0.4 h 0.8 c 0.2,0 0.4,0.2 0.4,0.4 0,0.2 -0.2,0.4 -0.4,0.4 h -0.8 c -0.2,0.1 -0.4,-0.1 -0.4,-0.4 z m 1.5,5.6 h -0.8 c -0.2,0 -0.4,-0.2 -0.4,-0.4 0,-0.2 0.2,-0.4 0.4,-0.4 h 0.8 c 0.2,0 0.4,0.2 0.4,0.4 0,0.2 -0.2,0.4 -0.4,0.4 z m 1,-5.6 c 0,-0.2 0.2,-0.4 0.4,-0.4 H 68 c 0.2,0 0.4,0.2 0.4,0.4 0,0.2 -0.2,0.4 -0.4,0.4 h -0.8 c -0.3,0.1 -0.5,-0.1 -0.5,-0.4 z m 1.4,5.6 h -0.8 c -0.2,0 -0.4,-0.2 -0.4,-0.4 0,-0.2 0.2,-0.4 0.4,-0.4 h 0.8 c 0.2,0 0.4,0.2 0.4,0.4 0,0.2 -0.1,0.4 -0.4,0.4 z m 1.1,-5.6 c 0,-0.2 0.2,-0.4 0.4,-0.4 h 0.8 c 0.2,0 0.4,0.2 0.4,0.4 0,0.2 -0.2,0.4 -0.4,0.4 h -0.8 c -0.2,0.1 -0.4,-0.1 -0.4,-0.4 z m 1.4,5.6 h -0.8 c -0.2,0 -0.4,-0.2 -0.4,-0.4 0,-0.2 0.2,-0.4 0.4,-0.4 h 0.8 c 0.2,0 0.4,0.2 0.4,0.4 0,0.2 -0.2,0.4 -0.4,0.4 z m 1.1,-5.6 c 0,-0.2 0.2,-0.4 0.4,-0.4 h 0.8 c 0.2,0 0.4,0.2 0.4,0.4 0,0.2 -0.2,0.4 -0.4,0.4 h -0.8 c -0.2,0.1 -0.4,-0.1 -0.4,-0.4 z m 1.4,5.6 h -0.8 c -0.2,0 -0.4,-0.2 -0.4,-0.4 0,-0.2 0.2,-0.4 0.4,-0.4 h 0.8 c 0.2,0 0.4,0.2 0.4,0.4 0,0.2 -0.2,0.4 -0.4,0.4 z m 1,-5.6 c 0,-0.2 0.2,-0.4 0.4,-0.4 h 0.8 c 0.2,0 0.4,0.2 0.4,0.4 0,0.2 -0.2,0.4 -0.4,0.4 h -0.8 c -0.2,0.1 -0.4,-0.1 -0.4,-0.4 z m 1.5,5.6 h -0.8 c -0.2,0 -0.4,-0.2 -0.4,-0.4 0,-0.2 0.2,-0.4 0.4,-0.4 h 0.8 c 0.2,0 0.4,0.2 0.4,0.4 0,0.2 -0.2,0.4 -0.4,0.4 z m 2.4,0 h -0.8 c -0.2,0 -0.4,-0.2 -0.4,-0.4 0,-0.2 0.2,-0.4 0.4,-0.4 H 78 c 0.2,0 0.4,0.2 0.4,0.4 0,0.2 -0.1,0.4 -0.4,0.4 z m 2.5,0 h -0.8 c -0.2,0 -0.4,-0.2 -0.4,-0.4 0,-0.2 0.2,-0.4 0.4,-0.4 h 0.8 c 0.2,0 0.4,0.2 0.4,0.4 0,0.2 -0.2,0.4 -0.4,0.4 z m 2.5,0 h -0.8 c -0.2,0 -0.4,-0.2 -0.4,-0.4 0,-0.2 0.2,-0.4 0.4,-0.4 H 83 c 0.2,0 0.4,0.2 0.4,0.4 0,0.2 -0.2,0.4 -0.4,0.4 z m 1,-5.5 c 0,-0.2 0.2,-0.4 0.4,-0.4 0.2,0 0.3,-0.1 0.4,-0.2 0.1,-0.2 0.4,-0.2 0.6,-0.1 0.2,0.1 0.2,0.4 0.1,0.6 -0.2,0.3 -0.6,0.6 -1,0.6 0,0 0,0 0,0 C 84.2,73.6 84.1,73.4 84,73.2 Z M 85.3,55 c 0.2,0 0.4,0.2 0.4,0.4 v 0.8 c 0,0.2 -0.2,0.4 -0.4,0.4 -0.2,0 -0.4,-0.2 -0.4,-0.4 v -0.8 c 0,-0.2 0.2,-0.4 0.4,-0.4 z M 84.9,53.8 V 53 c 0,-0.2 0.2,-0.4 0.4,-0.4 0.2,0 0.4,0.2 0.4,0.4 v 0.8 c 0,0.2 -0.2,0.4 -0.4,0.4 -0.2,0 -0.4,-0.2 -0.4,-0.4 z m 0.4,3.7 c 0.2,0 0.4,0.2 0.4,0.4 v 0.8 c 0,0.2 -0.2,0.4 -0.4,0.4 -0.2,0 -0.4,-0.2 -0.4,-0.4 v -0.8 c 0,-0.2 0.2,-0.4 0.4,-0.4 z m 0,2.5 c 0.2,0 0.4,0.2 0.4,0.4 v 0.8 c 0,0.2 -0.2,0.4 -0.4,0.4 -0.2,0 -0.4,-0.2 -0.4,-0.4 v -0.8 c 0,-0.2 0.2,-0.4 0.4,-0.4 z m 0,2.5 c 0.2,0 0.4,0.2 0.4,0.4 v 0.8 c 0,0.2 -0.2,0.4 -0.4,0.4 -0.2,0 -0.4,-0.2 -0.4,-0.4 v -0.8 c 0,-0.3 0.2,-0.4 0.4,-0.4 z m 0,2.4 c 0.2,0 0.4,0.2 0.4,0.4 v 0.8 c 0,0.2 -0.2,0.4 -0.4,0.4 -0.2,0 -0.4,-0.2 -0.4,-0.4 v -0.8 c 0,-0.2 0.2,-0.4 0.4,-0.4 z m 0,2.5 c 0.2,0 0.4,0.2 0.4,0.4 v 0.8 c 0,0.2 -0.2,0.4 -0.4,0.4 -0.2,0 -0.4,-0.2 -0.4,-0.4 v -0.8 c 0,-0.2 0.2,-0.4 0.4,-0.4 z m 0,2.5 c 0.2,0 0.4,0.2 0.4,0.4 v 0.8 c 0,0.2 -0.2,0.4 -0.4,0.4 -0.2,0 -0.4,-0.2 -0.4,-0.4 v -0.8 c 0,-0.2 0.2,-0.4 0.4,-0.4 z m 5.3,8.2 c -0.2,0.3 -0.6,0.6 -1,0.6 0,0 0,0 0,0 -0.2,0 -0.4,-0.2 -0.4,-0.4 0,-0.2 0.2,-0.4 0.4,-0.4 0.2,0 0.3,-0.1 0.4,-0.2 0.1,-0.2 0.4,-0.2 0.6,-0.1 0.1,0.1 0.1,0.3 0,0.5 z M 90,53.1 c 0,-0.2 0.2,-0.4 0.4,-0.4 0.2,0 0.4,0.2 0.4,0.4 V 54 c 0,0.2 -0.2,0.4 -0.4,0.4 C 90.2,54.4 90,54.2 90,54 Z m 0,2.5 c 0,-0.2 0.2,-0.4 0.4,-0.4 0.2,0 0.4,0.2 0.4,0.4 v 0.8 c 0,0.2 -0.2,0.4 -0.4,0.4 -0.2,0 -0.4,-0.2 -0.4,-0.4 z m 0,2.5 c 0,-0.2 0.2,-0.4 0.4,-0.4 0.2,0 0.4,0.2 0.4,0.4 v 0.8 c 0,0.2 -0.2,0.4 -0.4,0.4 -0.2,0 -0.4,-0.2 -0.4,-0.4 z m 0,2.5 c 0,-0.2 0.2,-0.4 0.4,-0.4 0.2,0 0.4,0.2 0.4,0.4 v 0.8 c 0,0.2 -0.2,0.4 -0.4,0.4 -0.2,0 -0.4,-0.2 -0.4,-0.4 z m 0,2.4 c 0,-0.2 0.2,-0.4 0.4,-0.4 0.2,0 0.4,0.2 0.4,0.4 v 0.8 c 0,0.2 -0.2,0.4 -0.4,0.4 C 90.2,64.2 90,64 90,63.8 Z m 0,2.5 c 0,-0.2 0.2,-0.4 0.4,-0.4 0.2,0 0.4,0.2 0.4,0.4 v 0.8 c 0,0.2 -0.2,0.4 -0.4,0.4 -0.2,0 -0.4,-0.2 -0.4,-0.4 z m 0,2.5 c 0,-0.2 0.2,-0.4 0.4,-0.4 0.2,0 0.4,0.2 0.4,0.4 v 0.8 c 0,0.2 -0.2,0.4 -0.4,0.4 C 90.2,69.2 90,69 90,68.8 Z m 0,2.5 c 0,-0.2 0.2,-0.4 0.4,-0.4 0.2,0 0.4,0.2 0.4,0.4 v 0.8 c 0,0.2 -0.2,0.4 -0.4,0.4 -0.2,0 -0.4,-0.2 -0.4,-0.4 z m 0,2.4 c 0,-0.2 0.2,-0.4 0.4,-0.4 0.2,0 0.4,0.2 0.4,0.4 v 0.8 c 0,0.2 -0.2,0.4 -0.4,0.4 -0.2,0 -0.4,-0.2 -0.4,-0.4 z m 0,2.5 c 0,-0.2 0.2,-0.4 0.4,-0.4 0.2,0 0.4,0.2 0.4,0.4 v 0.8 c 0,0.2 -0.2,0.4 -0.4,0.4 -0.2,0 -0.4,-0.2 -0.4,-0.4 z M 88.7,51.6 h 0.8 c 0.2,0 0.4,0.2 0.4,0.4 0,0.2 -0.2,0.4 -0.4,0.4 h -0.8 c -0.2,0 -0.4,-0.2 -0.4,-0.4 0,-0.2 0.2,-0.4 0.4,-0.4 z m -0.4,26.7 c 0,0.2 -0.2,0.4 -0.4,0.4 h -0.8 c -0.2,0 -0.4,-0.2 -0.4,-0.4 0,-0.2 0.2,-0.4 0.4,-0.4 h 0.8 c 0.3,0 0.4,0.1 0.4,0.4 z M 86.2,51.6 H 87 c 0.2,0 0.4,0.2 0.4,0.4 0,0.2 -0.2,0.4 -0.4,0.4 h -0.8 c -0.2,0 -0.4,-0.2 -0.4,-0.4 0,-0.2 0.2,-0.4 0.4,-0.4 z m -0.3,26.7 c 0,0.2 -0.2,0.4 -0.4,0.4 h -0.8 c -0.2,0 -0.4,-0.2 -0.4,-0.4 0,-0.2 0.2,-0.4 0.4,-0.4 h 0.8 c 0.2,0 0.4,0.1 0.4,0.4 z M 84.9,48 c 0,-0.2 0.2,-0.4 0.4,-0.4 0.2,0 0.4,0.2 0.4,0.4 v 0.8 c 0,0.2 -0.2,0.4 -0.4,0.4 -0.2,0 -0.4,-0.2 -0.4,-0.4 z m 0,2.5 c 0,-0.2 0.2,-0.4 0.4,-0.4 0.2,0 0.4,0.2 0.4,0.4 v 0.8 c 0,0.2 -0.2,0.4 -0.4,0.4 -0.2,0 -0.4,-0.2 -0.4,-0.4 z M 85,52 c 0,0.2 -0.2,0.4 -0.4,0.4 h -0.8 c -0.2,0 -0.4,-0.2 -0.4,-0.4 0,-0.2 0.2,-0.4 0.4,-0.4 h 0.8 c 0.2,0 0.4,0.2 0.4,0.4 z m -1.4,-5.5 h 0.8 c 0.2,0 0.4,0.2 0.4,0.4 0,0.2 -0.2,0.4 -0.4,0.4 h -0.8 c -0.2,0 -0.4,-0.2 -0.4,-0.4 0,-0.3 0.2,-0.4 0.4,-0.4 z m -0.3,26.7 c 0,0.5 -0.4,0.8 -0.8,0.8 h -5.2 c -0.3,0 -0.6,-0.2 -0.8,-0.5 -0.1,-0.1 -0.1,-0.2 -0.1,-0.3 0,-0.1 0.1,-0.2 0.1,-0.3 0,-0.1 0.1,-0.2 0.2,-0.3 0.1,-0.1 0.4,-0.2 0.6,-0.2 h 5.2 c 0.4,-0.1 0.8,0.3 0.8,0.8 z M 82.5,52 c 0,0.2 -0.2,0.4 -0.4,0.4 h -0.8 c -0.2,0 -0.4,-0.2 -0.4,-0.4 0,-0.2 0.2,-0.4 0.4,-0.4 h 0.8 c 0.2,0 0.4,0.2 0.4,0.4 z m -1.4,-5.5 h 0.8 c 0.2,0 0.4,0.2 0.4,0.4 0,0.2 -0.2,0.4 -0.4,0.4 h -0.8 c -0.2,0 -0.4,-0.2 -0.4,-0.4 0,-0.3 0.2,-0.4 0.4,-0.4 z M 82.3,67 79.8,71.3 78,68.2 c 0,0.2 -0.2,0.3 -0.4,0.3 h -0.8 c -0.2,0 -0.4,-0.2 -0.4,-0.4 0,-0.2 0.2,-0.4 0.4,-0.4 h 0.8 c 0,0 0.1,0 0.1,0 L 77.4,67 H 79 V 55.7 c 0,-0.4 0.3,-0.7 0.7,-0.8 0.1,0 0.1,0 0.2,0 0,0 0.1,0 0.1,0 0,0 0.1,0 0.2,0 0.2,0 0.4,0.2 0.4,0.4 v 0.1 c 0.1,0.1 0.1,0.2 0.1,0.4 V 67.1 Z M 80.2,49.9 c 0.2,0 0.4,0.2 0.4,0.4 v 0.8 c 0,0.2 -0.2,0.4 -0.4,0.4 -0.2,0 -0.4,-0.2 -0.4,-0.4 v -0.8 c 0,-0.2 0.1,-0.4 0.4,-0.4 z m -0.4,-1.2 v -0.8 c 0,-0.2 0.2,-0.4 0.4,-0.4 0.2,0 0.4,0.2 0.4,0.4 v 0.8 c 0,0.2 -0.2,0.4 -0.4,0.4 -0.3,0 -0.4,-0.2 -0.4,-0.4 z m 0.8,4.1 v 0.8 c 0,0.2 -0.2,0.4 -0.4,0.4 -0.2,0 -0.4,-0.2 -0.4,-0.4 v -0.8 c 0,-0.2 0.2,-0.4 0.4,-0.4 0.2,0 0.4,0.2 0.4,0.4 z M 80,52 c 0,0.2 -0.2,0.4 -0.4,0.4 h -0.8 c -0.2,0 -0.4,-0.2 -0.4,-0.4 0,-0.2 0.2,-0.4 0.4,-0.4 h 0.8 c 0.3,0 0.4,0.2 0.4,0.4 z m -0.2,-9.1 c 0,-0.2 0.2,-0.4 0.4,-0.4 0.2,0 0.4,0.2 0.4,0.4 v 0.8 c 0,0.2 -0.2,0.4 -0.4,0.4 -0.2,0 -0.4,-0.2 -0.4,-0.4 z m 0,2.5 c 0,-0.2 0.2,-0.4 0.4,-0.4 0.2,0 0.4,0.2 0.4,0.4 v 0.8 c 0,0.2 -0.2,0.4 -0.4,0.4 -0.2,0 -0.4,-0.2 -0.4,-0.4 z m 0.1,1.5 c 0,0.2 -0.2,0.4 -0.4,0.4 h -0.8 c -0.2,0 -0.4,-0.2 -0.4,-0.4 0,-0.2 0.2,-0.4 0.4,-0.4 h 0.8 c 0.2,0 0.4,0.1 0.4,0.4 z m -1.4,-5.6 h 0.8 c 0.2,0 0.4,0.2 0.4,0.4 0,0.2 -0.2,0.4 -0.4,0.4 h -0.8 c -0.2,0 -0.4,-0.2 -0.4,-0.4 -0.1,-0.2 0.1,-0.4 0.4,-0.4 z M 77.6,52 c 0,0.2 -0.2,0.4 -0.4,0.4 H 76.4 C 76.2,52.4 76,52.2 76,52 c 0,-0.2 0.2,-0.4 0.4,-0.4 h 0.8 c 0.2,0 0.4,0.2 0.4,0.4 z m -0.2,-5.1 c 0,0.2 -0.2,0.4 -0.4,0.4 h -0.8 c -0.2,0 -0.4,-0.2 -0.4,-0.4 0,-0.2 0.2,-0.4 0.4,-0.4 H 77 c 0.2,0 0.4,0.1 0.4,0.4 z M 76,41.3 h 0.8 c 0.2,0 0.4,0.2 0.4,0.4 0,0.2 -0.2,0.4 -0.4,0.4 H 76 c -0.2,0 -0.4,-0.2 -0.4,-0.4 0,-0.2 0.2,-0.4 0.4,-0.4 z M 75.6,68 c 0,0.2 -0.2,0.4 -0.4,0.4 H 74.4 C 74.2,68.4 74,68.2 74,68 c 0,-0.2 0.2,-0.4 0.4,-0.4 h 0.8 c 0.2,0 0.4,0.2 0.4,0.4 z M 75.1,52 c 0,0.2 -0.2,0.4 -0.4,0.4 h -0.8 c -0.2,0 -0.4,-0.2 -0.4,-0.4 0,-0.2 0.2,-0.4 0.4,-0.4 h 0.8 c 0.2,0 0.4,0.2 0.4,0.4 z m -0.2,-5.1 c 0,0.2 -0.2,0.4 -0.4,0.4 h -0.8 c -0.2,0 -0.4,-0.2 -0.4,-0.4 0,-0.2 0.2,-0.4 0.4,-0.4 h 0.8 c 0.2,0 0.4,0.1 0.4,0.4 z m -1.4,-5.6 h 0.8 c 0.2,0 0.4,0.2 0.4,0.4 0,0.2 -0.2,0.4 -0.4,0.4 h -0.8 c -0.2,0 -0.4,-0.2 -0.4,-0.4 0,-0.2 0.2,-0.4 0.4,-0.4 z M 73.1,68 c 0,0.2 -0.2,0.4 -0.4,0.4 h -0.8 c -0.2,0 -0.4,-0.2 -0.4,-0.4 0,-0.2 0.2,-0.4 0.4,-0.4 h 0.8 c 0.3,0 0.4,0.2 0.4,0.4 z M 72.6,52 c 0,0.2 -0.2,0.4 -0.4,0.4 H 71.4 C 71.2,52.4 71,52.2 71,52 c 0,-0.2 0.2,-0.4 0.4,-0.4 h 0.8 c 0.2,0 0.4,0.2 0.4,0.4 z m -0.2,-5.1 c 0,0.2 -0.2,0.4 -0.4,0.4 h -0.8 c -0.2,0 -0.4,-0.2 -0.4,-0.4 0,-0.2 0.2,-0.4 0.4,-0.4 H 72 c 0.3,0 0.4,0.1 0.4,0.4 z M 71,41.3 h 0.8 c 0.2,0 0.4,0.2 0.4,0.4 0,0.2 -0.2,0.4 -0.4,0.4 H 71 c -0.2,0 -0.4,-0.2 -0.4,-0.4 0,-0.2 0.2,-0.4 0.4,-0.4 z M 70.7,68 c 0,0.2 -0.2,0.4 -0.4,0.4 h -0.8 c -0.2,0 -0.4,-0.2 -0.4,-0.4 0,-0.2 0.2,-0.4 0.4,-0.4 h 0.8 c 0.2,0 0.4,0.2 0.4,0.4 z M 70.1,52 c 0,0.2 -0.2,0.4 -0.4,0.4 h -0.8 c -0.2,0 -0.4,-0.2 -0.4,-0.4 0,-0.2 0.2,-0.4 0.4,-0.4 h 0.8 c 0.2,0 0.4,0.2 0.4,0.4 z M 70,46.9 c 0,0.2 -0.2,0.4 -0.4,0.4 h -0.8 c -0.2,0 -0.4,-0.2 -0.4,-0.4 0,-0.2 0.2,-0.4 0.4,-0.4 h 0.8 c 0.2,0 0.4,0.1 0.4,0.4 z m -1.4,-5.6 h 0.8 c 0.2,0 0.4,0.2 0.4,0.4 0,0.2 -0.2,0.4 -0.4,0.4 h -0.8 c -0.2,0 -0.4,-0.2 -0.4,-0.4 -0.1,-0.2 0.1,-0.4 0.4,-0.4 z M 68.2,68 c 0,0.2 -0.2,0.4 -0.4,0.4 H 67 c -0.2,0 -0.4,-0.2 -0.4,-0.4 0,-0.2 0.2,-0.4 0.4,-0.4 h 0.8 c 0.2,0 0.4,0.2 0.4,0.4 z M 67.7,52 c 0,0.2 -0.2,0.4 -0.4,0.4 h -0.8 c -0.2,0 -0.4,-0.2 -0.4,-0.4 0,-0.2 0.2,-0.4 0.4,-0.4 h 0.8 c 0.2,0 0.4,0.2 0.4,0.4 z m -0.2,-5.1 c 0,0.2 -0.2,0.4 -0.4,0.4 h -0.8 c -0.2,0 -0.4,-0.2 -0.4,-0.4 0,-0.2 0.2,-0.4 0.4,-0.4 h 0.8 c 0.2,0 0.4,0.1 0.4,0.4 z m -1.4,-5.6 h 0.8 c 0.2,0 0.4,0.2 0.4,0.4 0,0.2 -0.2,0.4 -0.4,0.4 h -0.8 c -0.2,0 -0.4,-0.2 -0.4,-0.4 0,-0.2 0.2,-0.4 0.4,-0.4 z M 65.7,68 c 0,0.2 -0.2,0.4 -0.4,0.4 h -0.8 c -0.2,0 -0.4,-0.2 -0.4,-0.4 0,-0.2 0.2,-0.4 0.4,-0.4 h 0.8 c 0.2,0 0.4,0.2 0.4,0.4 z M 65.2,52 c 0,0.2 -0.2,0.4 -0.4,0.4 -0.1,0 -0.3,0.1 -0.4,0.2 -0.1,0.1 -0.2,0.2 -0.3,0.2 -0.1,0 -0.2,0 -0.2,-0.1 -0.2,-0.1 -0.2,-0.4 -0.1,-0.6 0.2,-0.3 0.6,-0.6 1,-0.6 0.2,0.1 0.4,0.2 0.4,0.5 z M 65,46.9 c 0,0.2 -0.2,0.4 -0.4,0.4 h -0.8 c -0.2,0 -0.4,-0.2 -0.4,-0.4 0,-0.2 0.2,-0.4 0.4,-0.4 h 0.8 c 0.2,0 0.4,0.1 0.4,0.4 z m -1.4,-5.6 h 0.8 c 0.2,0 0.4,0.2 0.4,0.4 0,0.2 -0.2,0.4 -0.4,0.4 h -0.8 c -0.2,0 -0.4,-0.2 -0.4,-0.4 0,-0.2 0.2,-0.4 0.4,-0.4 z M 63.2,68 c 0,0.2 -0.2,0.4 -0.4,0.4 H 62 c -0.2,0 -0.4,-0.2 -0.4,-0.4 0,-0.2 0.2,-0.4 0.4,-0.4 h 0.8 c 0.3,0 0.4,0.2 0.4,0.4 z M 62.5,46.9 c 0,0.2 -0.2,0.4 -0.4,0.4 h -0.8 c -0.2,0 -0.4,-0.2 -0.4,-0.4 0,-0.2 0.2,-0.4 0.4,-0.4 h 0.8 c 0.3,0 0.4,0.1 0.4,0.4 z M 61.1,41.3 H 62 c 0.2,0 0.4,0.2 0.4,0.4 0,0.2 -0.2,0.4 -0.4,0.4 h -0.8 c -0.2,0 -0.4,-0.2 -0.4,-0.4 -0.1,-0.2 0.1,-0.4 0.3,-0.4 z M 60.8,68 c 0,0.2 -0.2,0.4 -0.4,0.4 h -0.8 c -0.2,0 -0.4,-0.2 -0.4,-0.4 0,-0.2 0.2,-0.4 0.4,-0.4 h 0.8 c 0.2,0 0.4,0.2 0.4,0.4 z M 60.1,46.8 c 0,0.2 -0.2,0.4 -0.4,0.4 -0.1,0 -0.3,0.1 -0.4,0.2 -0.1,0.1 -0.2,0.2 -0.3,0.2 -0.1,0 -0.2,0 -0.2,-0.1 -0.2,-0.1 -0.2,-0.4 -0.1,-0.6 0.2,-0.3 0.6,-0.6 1,-0.6 0.1,0.1 0.3,0.3 0.4,0.5 z m -1.4,-5.5 h 0.8 c 0.2,0 0.4,0.2 0.4,0.4 0,0.2 -0.2,0.4 -0.4,0.4 h -0.8 c -0.2,0 -0.4,-0.2 -0.4,-0.4 -0.1,-0.2 0.1,-0.4 0.4,-0.4 z M 58.3,68 c 0,0.2 -0.2,0.4 -0.4,0.4 h -0.8 c -0.2,0 -0.4,-0.2 -0.4,-0.4 0,-0.2 0.2,-0.4 0.4,-0.4 h 0.8 c 0.2,0 0.4,0.2 0.4,0.4 z M 56.2,41.3 H 57 c 0.2,0 0.4,0.2 0.4,0.4 0,0.2 -0.2,0.4 -0.4,0.4 h -0.8 c -0.2,0 -0.4,-0.2 -0.4,-0.4 0,-0.2 0.1,-0.4 0.4,-0.4 z M 55.8,68 c 0,0.2 -0.2,0.4 -0.4,0.4 h -0.8 c -0.2,0 -0.4,-0.2 -0.4,-0.4 0,-0.2 0.2,-0.4 0.4,-0.4 h 0.8 c 0.2,0 0.4,0.2 0.4,0.4 z M 53.5,41.9 c 0.2,-0.3 0.6,-0.6 1,-0.6 0.2,0 0.4,0.2 0.4,0.4 0,0.2 -0.2,0.4 -0.4,0.4 -0.1,0 -0.3,0.1 -0.4,0.2 -0.1,0.1 -0.2,0.2 -0.3,0.2 -0.1,0 -0.2,0 -0.2,-0.1 -0.2,0 -0.2,-0.3 -0.1,-0.5 z m -0.2,1.9 c 0,-0.2 0.2,-0.4 0.4,-0.4 0.2,0 0.4,0.2 0.4,0.4 v 0.8 c 0,0.2 -0.2,0.4 -0.4,0.4 -0.2,0 -0.4,-0.2 -0.4,-0.4 z m 0,2.4 c 0,-0.2 0.2,-0.4 0.4,-0.4 0.2,0 0.4,0.2 0.4,0.4 V 47 c 0,0.2 -0.2,0.4 -0.4,0.4 -0.2,0 -0.4,-0.2 -0.4,-0.4 z m 0,2.5 c 0,-0.2 0.2,-0.4 0.4,-0.4 0.2,0 0.4,0.2 0.4,0.4 v 0.8 c 0,0.2 -0.2,0.4 -0.4,0.4 -0.2,0 -0.4,-0.2 -0.4,-0.4 z m 0,2.5 c 0,-0.2 0.2,-0.4 0.4,-0.4 0.2,0 0.4,0.2 0.4,0.4 V 52 c 0,0.2 -0.2,0.4 -0.4,0.4 -0.2,0 -0.4,-0.2 -0.4,-0.4 z m 0,2.5 c 0,-0.2 0.2,-0.4 0.4,-0.4 0.2,0 0.4,0.2 0.4,0.4 v 0.8 c 0,0.2 -0.2,0.4 -0.4,0.4 -0.2,0 -0.4,-0.2 -0.4,-0.4 z m 0,2.4 c 0,-0.2 0.2,-0.4 0.4,-0.4 0.2,0 0.4,0.2 0.4,0.4 V 57 c 0,0.2 -0.2,0.4 -0.4,0.4 -0.2,0 -0.4,-0.2 -0.4,-0.4 z m 0,2.5 c 0,-0.2 0.2,-0.4 0.4,-0.4 0.2,0 0.4,0.2 0.4,0.4 v 0.8 c 0,0.2 -0.2,0.4 -0.4,0.4 -0.2,0 -0.4,-0.2 -0.4,-0.4 z m 0,2.5 c 0,-0.2 0.2,-0.4 0.4,-0.4 0.2,0 0.4,0.2 0.4,0.4 v 0.8 c 0,0.2 -0.2,0.4 -0.4,0.4 -0.2,0 -0.4,-0.2 -0.4,-0.4 z m 0,2.5 c 0,-0.2 0.2,-0.4 0.4,-0.4 0.2,0 0.4,0.2 0.4,0.4 v 0.8 c 0,0.2 -0.2,0.4 -0.4,0.4 -0.2,0 -0.4,-0.2 -0.4,-0.4 z m 0,2.5 c 0,-0.2 0.2,-0.4 0.4,-0.4 0.2,0 0.4,0.2 0.4,0.4 v 0.8 c 0,0.2 -0.2,0.4 -0.4,0.4 -0.2,0 -0.4,-0.2 -0.4,-0.4 z"
           id="path290"
           inkscape:connector-curvature="0"
           style="fill:none" /><path
           d="m 49.2,110.6 h 45.6 v -12 H 49.2 Z m 40,-9.3 c 0,-0.2 0.2,-0.4 0.4,-0.4 h 2.5 c 0.2,0 0.4,0.2 0.4,0.4 v 6.6 c 0,0.2 -0.2,0.4 -0.4,0.4 h -2.5 c -0.2,0 -0.4,-0.2 -0.4,-0.4 z m -4.9,0 c 0,-0.2 0.2,-0.4 0.4,-0.4 h 2.5 c 0.2,0 0.4,0.2 0.4,0.4 v 6.6 c 0,0.2 -0.2,0.4 -0.4,0.4 h -2.5 c -0.2,0 -0.4,-0.2 -0.4,-0.4 z m -26.9,2.2 c 0.6,0 1.1,0.5 1.1,1.1 0,0.6 -0.5,1.1 -1.1,1.1 -0.6,0 -1.1,-0.5 -1.1,-1.1 -0.1,-0.6 0.4,-1.1 1.1,-1.1 z m -4,0 c 0.6,0 1.1,0.5 1.1,1.1 0,0.6 -0.5,1.1 -1.1,1.1 -0.6,0 -1.1,-0.5 -1.1,-1.1 -0.1,-0.6 0.4,-1.1 1.1,-1.1 z"
           id="path292"
           inkscape:connector-curvature="0"
           style="fill:none" /><circle
           cx="53.400002"
           cy="104.6"
           r="1.1"
           id="circle294"
           style="fill:#221f1f" /><circle
           cx="57.400002"
           cy="104.6"
           r="1.1"
           id="circle296"
           style="fill:#221f1f" /><path
           d="m 89.6,108.2 h 2.5 c 0.2,0 0.4,-0.2 0.4,-0.4 v -6.6 c 0,-0.2 -0.2,-0.4 -0.4,-0.4 h -2.5 c -0.2,0 -0.4,0.2 -0.4,0.4 v 6.6 c 0,0.2 0.2,0.4 0.4,0.4 z m 0.5,-6.5 h 1.6 v 5.7 h -1.6 z"
           id="path298"
           inkscape:connector-curvature="0"
           style="fill:#221f1f" /><path
           d="m 84.7,108.2 h 2.5 c 0.2,0 0.4,-0.2 0.4,-0.4 v -6.6 c 0,-0.2 -0.2,-0.4 -0.4,-0.4 h -2.5 c -0.2,0 -0.4,0.2 -0.4,0.4 v 6.6 c 0,0.2 0.2,0.4 0.4,0.4 z m 0.4,-6.5 h 1.6 v 5.7 h -1.6 z"
           id="path300"
           inkscape:connector-curvature="0"
           style="fill:#221f1f" /><path
           d="m 71.5,68 c 0,0.2 0.2,0.4 0.4,0.4 h 0.8 c 0.2,0 0.4,-0.2 0.4,-0.4 0,-0.2 -0.2,-0.4 -0.4,-0.4 h -0.8 c -0.2,0 -0.4,0.2 -0.4,0.4 z"
           id="path302"
           inkscape:connector-curvature="0"
           style="fill:#221f1f" /><path
           d="m 80.2,49.1 c 0.2,0 0.4,-0.2 0.4,-0.4 v -0.8 c 0,-0.2 -0.2,-0.4 -0.4,-0.4 -0.2,0 -0.4,0.2 -0.4,0.4 v 0.8 c 0,0.2 0.1,0.4 0.4,0.4 z"
           id="path304"
           inkscape:connector-curvature="0"
           style="fill:#221f1f" /><path
           d="m 73.5,42.2 h 0.8 c 0.2,0 0.4,-0.2 0.4,-0.4 0,-0.2 -0.2,-0.4 -0.4,-0.4 h -0.8 c -0.2,0 -0.4,0.2 -0.4,0.4 0,0.2 0.2,0.4 0.4,0.4 z"
           id="path306"
           inkscape:connector-curvature="0"
           style="fill:#221f1f" /><path
           d="m 66.5,68 c 0,0.2 0.2,0.4 0.4,0.4 h 0.8 c 0.2,0 0.4,-0.2 0.4,-0.4 0,-0.2 -0.2,-0.4 -0.4,-0.4 H 67 c -0.3,0 -0.5,0.2 -0.5,0.4 z"
           id="path308"
           inkscape:connector-curvature="0"
           style="fill:#221f1f" /><path
           d="m 68.6,42.2 h 0.8 c 0.2,0 0.4,-0.2 0.4,-0.4 0,-0.2 -0.2,-0.4 -0.4,-0.4 h -0.8 c -0.2,0 -0.4,0.2 -0.4,0.4 -0.1,0.2 0.1,0.4 0.4,0.4 z"
           id="path310"
           inkscape:connector-curvature="0"
           style="fill:#221f1f" /><path
           d="m 69,68 c 0,0.2 0.2,0.4 0.4,0.4 h 0.8 c 0.2,0 0.4,-0.2 0.4,-0.4 0,-0.2 -0.2,-0.4 -0.4,-0.4 H 69.4 C 69.2,67.6 69,67.8 69,68 Z"
           id="path312"
           inkscape:connector-curvature="0"
           style="fill:#221f1f" /><path
           d="m 71,42.2 h 0.8 c 0.2,0 0.4,-0.2 0.4,-0.4 0,-0.2 -0.2,-0.4 -0.4,-0.4 H 71 c -0.2,0 -0.4,0.2 -0.4,0.4 0,0.2 0.2,0.4 0.4,0.4 z"
           id="path314"
           inkscape:connector-curvature="0"
           style="fill:#221f1f" /><path
           d="m 79.8,51.1 c 0,0.2 0.2,0.4 0.4,0.4 0.2,0 0.4,-0.2 0.4,-0.4 v -0.8 c 0,-0.2 -0.2,-0.4 -0.4,-0.4 -0.2,0 -0.4,0.2 -0.4,0.4 z"
           id="path316"
           inkscape:connector-curvature="0"
           style="fill:#221f1f" /><path
           d="m 80.2,46.6 c 0.2,0 0.4,-0.2 0.4,-0.4 v -0.8 c 0,-0.2 -0.2,-0.4 -0.4,-0.4 -0.2,0 -0.4,0.2 -0.4,0.4 v 0.8 c 0,0.2 0.1,0.4 0.4,0.4 z"
           id="path318"
           inkscape:connector-curvature="0"
           style="fill:#221f1f" /><path
           d="m 80.2,44.1 c 0.2,0 0.4,-0.2 0.4,-0.4 v -0.8 c 0,-0.2 -0.2,-0.4 -0.4,-0.4 -0.2,0 -0.4,0.2 -0.4,0.4 v 0.8 c 0,0.2 0.1,0.4 0.4,0.4 z"
           id="path320"
           inkscape:connector-curvature="0"
           style="fill:#221f1f" /><path
           d="m 80.2,52.4 c -0.2,0 -0.4,0.2 -0.4,0.4 v 0.8 c 0,0.2 0.2,0.4 0.4,0.4 0.2,0 0.4,-0.2 0.4,-0.4 v -0.8 c 0,-0.2 -0.2,-0.4 -0.4,-0.4 z"
           id="path322"
           inkscape:connector-curvature="0"
           style="fill:#221f1f" /><path
           d="m 76,42.2 h 0.8 c 0.2,0 0.4,-0.2 0.4,-0.4 0,-0.2 -0.2,-0.4 -0.4,-0.4 H 76 c -0.2,0 -0.4,0.2 -0.4,0.4 0,0.2 0.2,0.4 0.4,0.4 z"
           id="path324"
           inkscape:connector-curvature="0"
           style="fill:#221f1f" /><path
           d="m 74,68 c 0,0.2 0.2,0.4 0.4,0.4 h 0.8 c 0.2,0 0.4,-0.2 0.4,-0.4 0,-0.2 -0.2,-0.4 -0.4,-0.4 H 74.4 C 74.2,67.6 74,67.8 74,68 Z"
           id="path326"
           inkscape:connector-curvature="0"
           style="fill:#221f1f" /><path
           d="m 78.5,42.2 h 0.8 c 0.2,0 0.4,-0.2 0.4,-0.4 0,-0.2 -0.2,-0.4 -0.4,-0.4 h -0.8 c -0.2,0 -0.4,0.2 -0.4,0.4 -0.1,0.2 0.1,0.4 0.4,0.4 z"
           id="path328"
           inkscape:connector-curvature="0"
           style="fill:#221f1f" /><path
           d="m 53.7,52.4 c 0.2,0 0.4,-0.2 0.4,-0.4 v -0.8 c 0,-0.2 -0.2,-0.4 -0.4,-0.4 -0.2,0 -0.4,0.2 -0.4,0.4 V 52 c 0,0.2 0.2,0.4 0.4,0.4 z"
           id="path330"
           inkscape:connector-curvature="0"
           style="fill:#221f1f" /><path
           d="M 56.2,42.2 H 57 c 0.2,0 0.4,-0.2 0.4,-0.4 0,-0.2 -0.2,-0.4 -0.4,-0.4 h -0.8 c -0.2,0 -0.4,0.2 -0.4,0.4 0,0.2 0.1,0.4 0.4,0.4 z"
           id="path332"
           inkscape:connector-curvature="0"
           style="fill:#221f1f" /><path
           d="m 53.7,64.8 c 0.2,0 0.4,-0.2 0.4,-0.4 v -0.8 c 0,-0.2 -0.2,-0.4 -0.4,-0.4 -0.2,0 -0.4,0.2 -0.4,0.4 v 0.8 c 0,0.2 0.2,0.4 0.4,0.4 z"
           id="path334"
           inkscape:connector-curvature="0"
           style="fill:#221f1f" /><path
           d="m 54.2,68 c 0,0.2 0.2,0.4 0.4,0.4 h 0.8 c 0.2,0 0.4,-0.2 0.4,-0.4 0,-0.2 -0.2,-0.4 -0.4,-0.4 h -0.8 c -0.2,0 -0.4,0.2 -0.4,0.4 z"
           id="path336"
           inkscape:connector-curvature="0"
           style="fill:#221f1f" /><path
           d="m 58.7,42.2 h 0.8 c 0.2,0 0.4,-0.2 0.4,-0.4 0,-0.2 -0.2,-0.4 -0.4,-0.4 h -0.8 c -0.2,0 -0.4,0.2 -0.4,0.4 -0.1,0.2 0.1,0.4 0.4,0.4 z"
           id="path338"
           inkscape:connector-curvature="0"
           style="fill:#221f1f" /><path
           d="m 53.6,42.5 c 0.1,0 0.1,0.1 0.2,0.1 0.1,0 0.3,-0.1 0.3,-0.2 0.1,-0.1 0.2,-0.2 0.4,-0.2 0.2,0 0.4,-0.2 0.4,-0.4 0,-0.2 -0.2,-0.4 -0.4,-0.4 -0.4,0 -0.8,0.2 -1,0.6 -0.1,0.1 -0.1,0.4 0.1,0.5 z"
           id="path340"
           inkscape:connector-curvature="0"
           style="fill:#221f1f" /><path
           d="m 56.6,68 c 0,0.2 0.2,0.4 0.4,0.4 h 0.8 c 0.2,0 0.4,-0.2 0.4,-0.4 0,-0.2 -0.2,-0.4 -0.4,-0.4 H 57 c -0.2,0 -0.4,0.2 -0.4,0.4 z"
           id="path342"
           inkscape:connector-curvature="0"
           style="fill:#221f1f" /><path
           d="m 53.7,67.3 c 0.2,0 0.4,-0.2 0.4,-0.4 v -0.8 c 0,-0.2 -0.2,-0.4 -0.4,-0.4 -0.2,0 -0.4,0.2 -0.4,0.4 v 0.8 c 0,0.2 0.2,0.4 0.4,0.4 z"
           id="path344"
           inkscape:connector-curvature="0"
           style="fill:#221f1f" /><path
           d="m 53.7,47.5 c 0.2,0 0.4,-0.2 0.4,-0.4 v -0.8 c 0,-0.2 -0.2,-0.4 -0.4,-0.4 -0.2,0 -0.4,0.2 -0.4,0.4 v 0.8 c 0,0.2 0.2,0.4 0.4,0.4 z"
           id="path346"
           inkscape:connector-curvature="0"
           style="fill:#221f1f" /><path
           d="m 53.7,59.9 c 0.2,0 0.4,-0.2 0.4,-0.4 v -0.8 c 0,-0.2 -0.2,-0.4 -0.4,-0.4 -0.2,0 -0.4,0.2 -0.4,0.4 v 0.8 c 0,0.2 0.2,0.4 0.4,0.4 z"
           id="path348"
           inkscape:connector-curvature="0"
           style="fill:#221f1f" /><path
           d="m 53.7,62.3 c 0.2,0 0.4,-0.2 0.4,-0.4 v -0.8 c 0,-0.2 -0.2,-0.4 -0.4,-0.4 -0.2,0 -0.4,0.2 -0.4,0.4 v 0.8 c 0,0.3 0.2,0.4 0.4,0.4 z"
           id="path350"
           inkscape:connector-curvature="0"
           style="fill:#221f1f" /><path
           d="m 53.7,57.4 c 0.2,0 0.4,-0.2 0.4,-0.4 v -0.8 c 0,-0.2 -0.2,-0.4 -0.4,-0.4 -0.2,0 -0.4,0.2 -0.4,0.4 V 57 c 0,0.2 0.2,0.4 0.4,0.4 z"
           id="path352"
           inkscape:connector-curvature="0"
           style="fill:#221f1f" /><path
           d="m 53.7,54.9 c 0.2,0 0.4,-0.2 0.4,-0.4 v -0.8 c 0,-0.2 -0.2,-0.4 -0.4,-0.4 -0.2,0 -0.4,0.2 -0.4,0.4 v 0.8 c 0,0.2 0.2,0.4 0.4,0.4 z"
           id="path354"
           inkscape:connector-curvature="0"
           style="fill:#221f1f" /><path
           d="m 53.7,50 c 0.2,0 0.4,-0.2 0.4,-0.4 v -0.8 c 0,-0.2 -0.2,-0.4 -0.4,-0.4 -0.2,0 -0.4,0.2 -0.4,0.4 v 0.8 c 0,0.2 0.2,0.4 0.4,0.4 z"
           id="path356"
           inkscape:connector-curvature="0"
           style="fill:#221f1f" /><path
           d="m 53.7,45 c 0.2,0 0.4,-0.2 0.4,-0.4 v -0.8 c 0,-0.2 -0.2,-0.4 -0.4,-0.4 -0.2,0 -0.4,0.2 -0.4,0.4 v 0.8 c 0,0.2 0.2,0.4 0.4,0.4 z"
           id="path358"
           inkscape:connector-curvature="0"
           style="fill:#221f1f" /><path
           d="m 64.1,68 c 0,0.2 0.2,0.4 0.4,0.4 h 0.8 c 0.2,0 0.4,-0.2 0.4,-0.4 0,-0.2 -0.2,-0.4 -0.4,-0.4 h -0.8 c -0.2,0 -0.4,0.2 -0.4,0.4 z"
           id="path360"
           inkscape:connector-curvature="0"
           style="fill:#221f1f" /><path
           d="m 61.6,68 c 0,0.2 0.2,0.4 0.4,0.4 h 0.8 c 0.2,0 0.4,-0.2 0.4,-0.4 0,-0.2 -0.2,-0.4 -0.4,-0.4 H 62 c -0.2,0 -0.4,0.2 -0.4,0.4 z"
           id="path362"
           inkscape:connector-curvature="0"
           style="fill:#221f1f" /><path
           d="m 63.6,42.2 h 0.8 c 0.2,0 0.4,-0.2 0.4,-0.4 0,-0.2 -0.2,-0.4 -0.4,-0.4 h -0.8 c -0.2,0 -0.4,0.2 -0.4,0.4 0,0.2 0.2,0.4 0.4,0.4 z"
           id="path364"
           inkscape:connector-curvature="0"
           style="fill:#221f1f" /><path
           d="m 66.1,42.2 h 0.8 c 0.2,0 0.4,-0.2 0.4,-0.4 0,-0.2 -0.2,-0.4 -0.4,-0.4 h -0.8 c -0.2,0 -0.4,0.2 -0.4,0.4 0,0.2 0.2,0.4 0.4,0.4 z"
           id="path366"
           inkscape:connector-curvature="0"
           style="fill:#221f1f" /><path
           d="m 59.1,68 c 0,0.2 0.2,0.4 0.4,0.4 h 0.8 c 0.2,0 0.4,-0.2 0.4,-0.4 0,-0.2 -0.2,-0.4 -0.4,-0.4 h -0.8 c -0.2,0 -0.4,0.2 -0.4,0.4 z"
           id="path368"
           inkscape:connector-curvature="0"
           style="fill:#221f1f" /><path
           d="M 61.1,42.2 H 62 c 0.2,0 0.4,-0.2 0.4,-0.4 0,-0.2 -0.2,-0.4 -0.4,-0.4 h -0.8 c -0.2,0 -0.4,0.2 -0.4,0.4 -0.1,0.2 0.1,0.4 0.3,0.4 z"
           id="path370"
           inkscape:connector-curvature="0"
           style="fill:#221f1f" /><path
           d="m 84.9,71.1 c 0,0.2 0.2,0.4 0.4,0.4 0.2,0 0.4,-0.2 0.4,-0.4 v -0.8 c 0,-0.2 -0.2,-0.4 -0.4,-0.4 -0.2,0 -0.4,0.2 -0.4,0.4 z"
           id="path372"
           inkscape:connector-curvature="0"
           style="fill:#221f1f" /><path
           d="m 85.3,49.3 c 0.2,0 0.4,-0.2 0.4,-0.4 V 48 c 0,-0.2 -0.2,-0.4 -0.4,-0.4 -0.2,0 -0.4,0.2 -0.4,0.4 v 0.8 c 0,0.3 0.2,0.5 0.4,0.5 z"
           id="path374"
           inkscape:connector-curvature="0"
           style="fill:#221f1f" /><path
           d="m 84.5,73.6 c 0.4,0 0.8,-0.2 1,-0.6 0.1,-0.2 0.1,-0.4 -0.1,-0.6 -0.2,-0.1 -0.4,-0.1 -0.6,0.1 -0.1,0.1 -0.2,0.2 -0.4,0.2 -0.2,0 -0.4,0.2 -0.4,0.4 0.1,0.3 0.2,0.5 0.5,0.5 0,0 0,0 0,0 z"
           id="path376"
           inkscape:connector-curvature="0"
           style="fill:#221f1f" /><path
           d="m 63,72.7 h -0.8 c -0.2,0 -0.4,0.2 -0.4,0.4 0,0.2 0.2,0.4 0.4,0.4 H 63 c 0.2,0 0.4,-0.2 0.4,-0.4 0,-0.2 -0.2,-0.4 -0.4,-0.4 z"
           id="path378"
           inkscape:connector-curvature="0"
           style="fill:#221f1f" /><path
           d="m 58.4,67 c 0,0.2 0.2,0.4 0.4,0.4 0.2,0 0.4,-0.2 0.4,-0.4 v -0.8 c 0,-0.2 -0.2,-0.4 -0.4,-0.4 -0.2,0 -0.4,0.2 -0.4,0.4 z"
           id="path380"
           inkscape:connector-curvature="0"
           style="fill:#221f1f" /><path
           d="m 60.5,72.7 h -0.8 c -0.2,0 -0.4,0.2 -0.4,0.4 0,0.2 0.1,0.3 0.3,0.4 h 0.9 c 0.2,0 0.4,-0.2 0.4,-0.4 0,-0.2 -0.1,-0.4 -0.4,-0.4 z"
           id="path382"
           inkscape:connector-curvature="0"
           style="fill:#221f1f" /><path
           d="m 65.5,73.6 c 0.2,0 0.4,-0.2 0.4,-0.4 0,-0.2 -0.2,-0.4 -0.4,-0.4 h -0.8 c -0.2,0 -0.4,0.2 -0.4,0.4 0,0.2 0.2,0.4 0.4,0.4 z"
           id="path384"
           inkscape:connector-curvature="0"
           style="fill:#221f1f" /><path
           d="m 84.9,68.7 c 0,0.2 0.2,0.4 0.4,0.4 0.2,0 0.4,-0.2 0.4,-0.4 v -0.8 c 0,-0.2 -0.2,-0.4 -0.4,-0.4 -0.2,0 -0.4,0.2 -0.4,0.4 z"
           id="path386"
           inkscape:connector-curvature="0"
           style="fill:#221f1f" /><path
           d="m 85.3,51.7 c 0.2,0 0.4,-0.2 0.4,-0.4 v -0.8 c 0,-0.2 -0.2,-0.4 -0.4,-0.4 -0.2,0 -0.4,0.2 -0.4,0.4 v 0.8 c 0,0.2 0.2,0.4 0.4,0.4 z"
           id="path388"
           inkscape:connector-curvature="0"
           style="fill:#221f1f" /><path
           d="m 84.9,58.7 c 0,0.2 0.2,0.4 0.4,0.4 0.2,0 0.4,-0.2 0.4,-0.4 v -0.8 c 0,-0.2 -0.2,-0.4 -0.4,-0.4 -0.2,0 -0.4,0.2 -0.4,0.4 z"
           id="path390"
           inkscape:connector-curvature="0"
           style="fill:#221f1f" /><path
           d="m 84.9,66.2 c 0,0.2 0.2,0.4 0.4,0.4 0.2,0 0.4,-0.2 0.4,-0.4 v -0.8 c 0,-0.2 -0.2,-0.4 -0.4,-0.4 -0.2,0 -0.4,0.2 -0.4,0.4 z"
           id="path392"
           inkscape:connector-curvature="0"
           style="fill:#221f1f" /><path
           d="m 85.3,54.2 c 0.2,0 0.4,-0.2 0.4,-0.4 V 53 c 0,-0.2 -0.2,-0.4 -0.4,-0.4 -0.2,0 -0.4,0.2 -0.4,0.4 v 0.8 c 0,0.2 0.2,0.4 0.4,0.4 z"
           id="path394"
           inkscape:connector-curvature="0"
           style="fill:#221f1f" /><path
           d="m 68,73.6 c 0.2,0 0.4,-0.2 0.4,-0.4 0,-0.2 -0.2,-0.4 -0.4,-0.4 h -0.8 c -0.2,0 -0.4,0.2 -0.4,0.4 0,0.2 0.2,0.4 0.4,0.4 z"
           id="path396"
           inkscape:connector-curvature="0"
           style="fill:#221f1f" /><path
           d="m 84.9,56.3 c 0,0.2 0.2,0.4 0.4,0.4 0.2,0 0.4,-0.2 0.4,-0.4 v -0.8 c 0,-0.2 -0.2,-0.4 -0.4,-0.4 -0.2,0 -0.4,0.2 -0.4,0.4 z"
           id="path398"
           inkscape:connector-curvature="0"
           style="fill:#221f1f" /><path
           d="m 70.4,73.6 c 0.2,0 0.4,-0.2 0.4,-0.4 0,-0.2 -0.2,-0.4 -0.4,-0.4 h -0.8 c -0.2,0 -0.4,0.2 -0.4,0.4 0,0.2 0.2,0.4 0.4,0.4 z"
           id="path400"
           inkscape:connector-curvature="0"
           style="fill:#221f1f" /><path
           d="m 58.4,64.6 c 0,0.2 0.2,0.4 0.4,0.4 0.2,0 0.4,-0.2 0.4,-0.4 v -0.8 c 0,-0.2 -0.2,-0.4 -0.4,-0.4 -0.2,0 -0.4,0.2 -0.4,0.4 z"
           id="path402"
           inkscape:connector-curvature="0"
           style="fill:#221f1f" /><path
           d="m 75.4,73.6 c 0.2,0 0.4,-0.2 0.4,-0.4 0,-0.2 -0.2,-0.4 -0.4,-0.4 h -0.8 c -0.2,0 -0.4,0.2 -0.4,0.4 0,0.2 0.2,0.4 0.4,0.4 z"
           id="path404"
           inkscape:connector-curvature="0"
           style="fill:#221f1f" /><path
           d="m 84.9,63.7 c 0,0.2 0.2,0.4 0.4,0.4 0.2,0 0.4,-0.2 0.4,-0.4 v -0.8 c 0,-0.2 -0.2,-0.4 -0.4,-0.4 -0.2,0 -0.4,0.2 -0.4,0.4 z"
           id="path406"
           inkscape:connector-curvature="0"
           style="fill:#221f1f" /><path
           d="m 84.9,61.2 c 0,0.2 0.2,0.4 0.4,0.4 0.2,0 0.4,-0.2 0.4,-0.4 v -0.8 c 0,-0.2 -0.2,-0.4 -0.4,-0.4 -0.2,0 -0.4,0.2 -0.4,0.4 z"
           id="path408"
           inkscape:connector-curvature="0"
           style="fill:#221f1f" /><path
           d="m 72.9,73.6 c 0.2,0 0.4,-0.2 0.4,-0.4 0,-0.2 -0.2,-0.4 -0.4,-0.4 h -0.8 c -0.2,0 -0.4,0.2 -0.4,0.4 0,0.2 0.2,0.4 0.4,0.4 z"
           id="path410"
           inkscape:connector-curvature="0"
           style="fill:#221f1f" /><path
           d="m 78.6,46.5 c -0.2,0 -0.4,0.2 -0.4,0.4 0,0.2 0.2,0.4 0.4,0.4 h 0.8 c 0.2,0 0.4,-0.2 0.4,-0.4 0,-0.2 -0.2,-0.4 -0.4,-0.4 z"
           id="path412"
           inkscape:connector-curvature="0"
           style="fill:#221f1f" /><path
           d="m 76.2,46.5 c -0.2,0 -0.4,0.2 -0.4,0.4 0,0.2 0.2,0.4 0.4,0.4 H 77 c 0.2,0 0.4,-0.2 0.4,-0.4 0,-0.2 -0.2,-0.4 -0.4,-0.4 z"
           id="path414"
           inkscape:connector-curvature="0"
           style="fill:#221f1f" /><path
           d="m 58.8,70.8 c -0.2,0 -0.4,0.2 -0.4,0.4 V 72 c 0,0.2 0.2,0.4 0.4,0.4 0.2,0 0.4,-0.2 0.4,-0.4 v -0.8 c 0,-0.3 -0.2,-0.4 -0.4,-0.4 z"
           id="path416"
           inkscape:connector-curvature="0"
           style="fill:#221f1f" /><path
           d="m 58.8,68.3 c -0.2,0 -0.4,0.2 -0.4,0.4 v 0.8 c 0,0.2 0.2,0.4 0.4,0.4 0.2,0 0.4,-0.2 0.4,-0.4 v -0.8 c 0,-0.2 -0.2,-0.4 -0.4,-0.4 z"
           id="path418"
           inkscape:connector-curvature="0"
           style="fill:#221f1f" /><path
           d="m 58.4,52.2 c 0,0.2 0.2,0.4 0.4,0.4 0.2,0 0.4,-0.2 0.4,-0.4 V 51.4 C 59.2,51.2 59,51 58.8,51 c -0.2,0 -0.4,0.2 -0.4,0.4 z"
           id="path420"
           inkscape:connector-curvature="0"
           style="fill:#221f1f" /><path
           d="m 73.7,46.5 c -0.2,0 -0.4,0.2 -0.4,0.4 0,0.2 0.2,0.4 0.4,0.4 h 0.8 c 0.2,0 0.4,-0.2 0.4,-0.4 0,-0.2 -0.2,-0.4 -0.4,-0.4 z"
           id="path422"
           inkscape:connector-curvature="0"
           style="fill:#221f1f" /><path
           d="m 66.2,46.5 c -0.2,0 -0.4,0.2 -0.4,0.4 0,0.2 0.2,0.4 0.4,0.4 H 67 c 0.2,0 0.4,-0.2 0.4,-0.4 0,-0.2 -0.2,-0.4 -0.4,-0.4 z"
           id="path424"
           inkscape:connector-curvature="0"
           style="fill:#221f1f" /><path
           d="m 61.3,46.5 c -0.2,0 -0.4,0.2 -0.4,0.4 0,0.2 0.2,0.4 0.4,0.4 h 0.8 c 0.2,0 0.4,-0.2 0.4,-0.4 0,-0.2 -0.2,-0.4 -0.4,-0.4 z"
           id="path426"
           inkscape:connector-curvature="0"
           style="fill:#221f1f" /><path
           d="m 63.8,46.5 c -0.2,0 -0.4,0.2 -0.4,0.4 0,0.2 0.2,0.4 0.4,0.4 h 0.8 c 0.2,0 0.4,-0.2 0.4,-0.4 0,-0.2 -0.2,-0.4 -0.4,-0.4 z"
           id="path428"
           inkscape:connector-curvature="0"
           style="fill:#221f1f" /><path
           d="m 58.6,47 c -0.1,0.2 -0.1,0.4 0.1,0.6 0.1,0 0.1,0.1 0.2,0.1 0.1,0 0.3,-0.1 0.3,-0.2 0.1,-0.1 0.2,-0.2 0.4,-0.2 0.2,0 0.4,-0.2 0.4,-0.4 0,-0.2 -0.2,-0.4 -0.4,-0.4 -0.4,0 -0.8,0.2 -1,0.5 z"
           id="path430"
           inkscape:connector-curvature="0"
           style="fill:#221f1f" /><path
           d="m 81.1,47.3 h 0.8 c 0.2,0 0.4,-0.2 0.4,-0.4 0,-0.2 -0.2,-0.4 -0.4,-0.4 h -0.8 c -0.2,0 -0.4,0.2 -0.4,0.4 0,0.2 0.2,0.4 0.4,0.4 z"
           id="path432"
           inkscape:connector-curvature="0"
           style="fill:#221f1f" /><path
           d="m 71.2,46.5 c -0.2,0 -0.4,0.2 -0.4,0.4 0,0.2 0.2,0.4 0.4,0.4 H 72 c 0.2,0 0.4,-0.2 0.4,-0.4 0,-0.2 -0.2,-0.4 -0.4,-0.4 z"
           id="path434"
           inkscape:connector-curvature="0"
           style="fill:#221f1f" /><path
           d="m 83.6,47.3 h 0.8 c 0.2,0 0.4,-0.2 0.4,-0.4 0,-0.2 -0.2,-0.4 -0.4,-0.4 h -0.8 c -0.2,0 -0.4,0.2 -0.4,0.4 0,0.2 0.2,0.4 0.4,0.4 z"
           id="path436"
           inkscape:connector-curvature="0"
           style="fill:#221f1f" /><path
           d="m 68.7,46.5 c -0.2,0 -0.4,0.2 -0.4,0.4 0,0.2 0.2,0.4 0.4,0.4 h 0.8 c 0.2,0 0.4,-0.2 0.4,-0.4 0,-0.2 -0.2,-0.4 -0.4,-0.4 z"
           id="path438"
           inkscape:connector-curvature="0"
           style="fill:#221f1f" /><path
           d="m 58.4,57.1 c 0,0.2 0.2,0.4 0.4,0.4 0.2,0 0.4,-0.2 0.4,-0.4 v -0.8 c 0,-0.2 -0.2,-0.4 -0.4,-0.4 -0.2,0 -0.4,0.2 -0.4,0.4 z"
           id="path440"
           inkscape:connector-curvature="0"
           style="fill:#221f1f" /><path
           d="m 58.8,50.1 c 0.2,0 0.4,-0.2 0.4,-0.4 v -0.8 c 0,-0.2 -0.2,-0.4 -0.4,-0.4 -0.2,0 -0.4,0.2 -0.4,0.4 v 0.8 c 0,0.2 0.2,0.4 0.4,0.4 z"
           id="path442"
           inkscape:connector-curvature="0"
           style="fill:#221f1f" /><path
           d="m 58.4,59.6 c 0,0.2 0.2,0.4 0.4,0.4 0.2,0 0.4,-0.2 0.4,-0.4 v -0.8 c 0,-0.2 -0.2,-0.4 -0.4,-0.4 -0.2,0 -0.4,0.2 -0.4,0.4 z"
           id="path444"
           inkscape:connector-curvature="0"
           style="fill:#221f1f" /><path
           d="m 58.4,54.7 c 0,0.2 0.2,0.4 0.4,0.4 0.2,0 0.4,-0.2 0.4,-0.4 v -0.8 c 0,-0.2 -0.2,-0.4 -0.4,-0.4 -0.2,0 -0.4,0.2 -0.4,0.4 z"
           id="path446"
           inkscape:connector-curvature="0"
           style="fill:#221f1f" /><path
           d="m 58.4,62.1 c 0,0.2 0.2,0.4 0.4,0.4 0.2,0 0.4,-0.2 0.4,-0.4 v -0.8 c 0,-0.2 -0.2,-0.4 -0.4,-0.4 -0.2,0 -0.4,0.2 -0.4,0.4 z"
           id="path448"
           inkscape:connector-curvature="0"
           style="fill:#221f1f" /><path
           d="m 63.9,75.9 c -0.2,0 -0.4,0.2 -0.4,0.4 v 0.8 c 0,0.2 0.2,0.4 0.4,0.4 0.2,0 0.4,-0.2 0.4,-0.4 v -0.8 c 0.1,-0.2 -0.1,-0.4 -0.4,-0.4 z"
           id="path450"
           inkscape:connector-curvature="0"
           style="fill:#221f1f" /><path
           d="m 68.1,77.9 h -0.8 c -0.2,0 -0.4,0.2 -0.4,0.4 0,0.2 0.2,0.4 0.4,0.4 h 0.8 c 0.2,0 0.4,-0.2 0.4,-0.4 0,-0.3 -0.1,-0.4 -0.4,-0.4 z"
           id="path452"
           inkscape:connector-curvature="0"
           style="fill:#221f1f" /><path
           d="m 63.9,73.4 c -0.2,0 -0.4,0.2 -0.4,0.4 v 0.8 c 0,0.2 0.2,0.4 0.4,0.4 0.2,0 0.4,-0.2 0.4,-0.4 v -0.8 c 0.1,-0.2 -0.1,-0.4 -0.4,-0.4 z"
           id="path454"
           inkscape:connector-curvature="0"
           style="fill:#221f1f" /><path
           d="m 63.5,69.7 c 0,0.2 0.2,0.4 0.4,0.4 0.2,0 0.4,-0.2 0.4,-0.4 v -0.8 c 0,-0.2 -0.2,-0.4 -0.4,-0.4 -0.2,0 -0.4,0.2 -0.4,0.4 z"
           id="path456"
           inkscape:connector-curvature="0"
           style="fill:#221f1f" /><path
           d="m 70.6,77.9 h -0.8 c -0.2,0 -0.4,0.2 -0.4,0.4 0,0.2 0.2,0.4 0.4,0.4 h 0.8 c 0.2,0 0.4,-0.2 0.4,-0.4 0,-0.3 -0.2,-0.4 -0.4,-0.4 z"
           id="path458"
           inkscape:connector-curvature="0"
           style="fill:#221f1f" /><path
           d="m 63.5,67.2 c 0,0.2 0.2,0.4 0.4,0.4 0.2,0 0.4,-0.2 0.4,-0.4 v -0.8 c 0,-0.2 -0.2,-0.4 -0.4,-0.4 -0.2,0 -0.4,0.2 -0.4,0.4 z"
           id="path460"
           inkscape:connector-curvature="0"
           style="fill:#221f1f" /><path
           d="m 65.7,77.9 h -0.8 c -0.2,0 -0.4,0.2 -0.4,0.4 0,0.2 0.2,0.4 0.4,0.4 h 0.8 c 0.2,0 0.4,-0.2 0.4,-0.4 0,-0.3 -0.2,-0.4 -0.4,-0.4 z"
           id="path462"
           inkscape:connector-curvature="0"
           style="fill:#221f1f" /><path
           d="m 63.5,72.2 c 0,0.2 0.2,0.4 0.4,0.4 0.2,0 0.4,-0.2 0.4,-0.4 v -0.8 c 0,-0.2 -0.2,-0.4 -0.4,-0.4 -0.2,0 -0.4,0.2 -0.4,0.4 z"
           id="path464"
           inkscape:connector-curvature="0"
           style="fill:#221f1f" /><path
           d="m 63.5,64.7 c 0,0.2 0.2,0.4 0.4,0.4 0.2,0 0.4,-0.2 0.4,-0.4 v -0.8 c 0,-0.2 -0.2,-0.4 -0.4,-0.4 -0.2,0 -0.4,0.2 -0.4,0.4 z"
           id="path466"
           inkscape:connector-curvature="0"
           style="fill:#221f1f" /><path
           d="m 63.5,57.3 c 0,0.2 0.2,0.4 0.4,0.4 0.2,0 0.4,-0.2 0.4,-0.4 v -0.8 c 0,-0.2 -0.2,-0.4 -0.4,-0.4 -0.2,0 -0.4,0.2 -0.4,0.4 z"
           id="path468"
           inkscape:connector-curvature="0"
           style="fill:#221f1f" /><path
           d="m 63.9,55.3 c 0.2,0 0.4,-0.2 0.4,-0.4 V 54 c 0,-0.2 -0.2,-0.4 -0.4,-0.4 -0.2,0 -0.4,0.2 -0.4,0.4 v 0.8 c 0,0.3 0.2,0.5 0.4,0.5 z"
           id="path470"
           inkscape:connector-curvature="0"
           style="fill:#221f1f" /><path
           d="m 63.5,62.3 c 0,0.2 0.2,0.4 0.4,0.4 0.2,0 0.4,-0.2 0.4,-0.4 v -0.8 c 0,-0.2 -0.2,-0.4 -0.4,-0.4 -0.2,0 -0.4,0.2 -0.4,0.4 z"
           id="path472"
           inkscape:connector-curvature="0"
           style="fill:#221f1f" /><path
           d="m 63.5,59.8 c 0,0.2 0.2,0.4 0.4,0.4 0.2,0 0.4,-0.2 0.4,-0.4 V 59 c 0,-0.2 -0.2,-0.4 -0.4,-0.4 -0.2,0 -0.4,0.2 -0.4,0.4 z"
           id="path474"
           inkscape:connector-curvature="0"
           style="fill:#221f1f" /><path
           d="m 68.9,51.6 c -0.2,0 -0.4,0.2 -0.4,0.4 0,0.2 0.2,0.4 0.4,0.4 h 0.8 c 0.2,0 0.4,-0.2 0.4,-0.4 0,-0.2 -0.2,-0.4 -0.4,-0.4 z"
           id="path476"
           inkscape:connector-curvature="0"
           style="fill:#221f1f" /><path
           d="m 84.6,77.9 c -0.2,0 -0.4,0.2 -0.4,0.4 0,0.2 0.2,0.4 0.4,0.4 h 0.8 c 0.2,0 0.4,-0.2 0.4,-0.4 0,-0.2 -0.2,-0.4 -0.4,-0.4 z"
           id="path478"
           inkscape:connector-curvature="0"
           style="fill:#221f1f" /><path
           d="m 83.8,51.6 c -0.2,0 -0.4,0.2 -0.4,0.4 0,0.2 0.2,0.4 0.4,0.4 h 0.8 c 0.2,0 0.4,-0.2 0.4,-0.4 0,-0.2 -0.2,-0.4 -0.4,-0.4 z"
           id="path480"
           inkscape:connector-curvature="0"
           style="fill:#221f1f" /><path
           d="M 86.2,52.4 H 87 c 0.2,0 0.4,-0.2 0.4,-0.4 0,-0.2 -0.2,-0.4 -0.4,-0.4 h -0.8 c -0.2,0 -0.4,0.2 -0.4,0.4 0,0.2 0.2,0.4 0.4,0.4 z"
           id="path482"
           inkscape:connector-curvature="0"
           style="fill:#221f1f" /><path
           d="m 90.4,74.2 c 0.2,0 0.4,-0.2 0.4,-0.4 V 73 c 0,-0.2 -0.2,-0.4 -0.4,-0.4 -0.2,0 -0.4,0.2 -0.4,0.4 v 0.8 c 0,0.2 0.2,0.4 0.4,0.4 z"
           id="path484"
           inkscape:connector-curvature="0"
           style="fill:#221f1f" /><path
           d="m 86.7,78.3 c 0,0.2 0.2,0.4 0.4,0.4 h 0.8 c 0.2,0 0.4,-0.2 0.4,-0.4 0,-0.2 -0.2,-0.4 -0.4,-0.4 h -0.8 c -0.2,0 -0.4,0.1 -0.4,0.4 z"
           id="path486"
           inkscape:connector-curvature="0"
           style="fill:#221f1f" /><path
           d="m 90.4,76.7 c 0.2,0 0.4,-0.2 0.4,-0.4 v -0.8 c 0,-0.2 -0.2,-0.4 -0.4,-0.4 -0.2,0 -0.4,0.2 -0.4,0.4 v 0.8 c 0,0.2 0.2,0.4 0.4,0.4 z"
           id="path488"
           inkscape:connector-curvature="0"
           style="fill:#221f1f" /><path
           d="m 88.7,52.4 h 0.8 c 0.2,0 0.4,-0.2 0.4,-0.4 0,-0.2 -0.2,-0.4 -0.4,-0.4 h -0.8 c -0.2,0 -0.4,0.2 -0.4,0.4 0,0.2 0.2,0.4 0.4,0.4 z"
           id="path490"
           inkscape:connector-curvature="0"
           style="fill:#221f1f" /><path
           d="m 81.3,51.6 c -0.2,0 -0.4,0.2 -0.4,0.4 0,0.2 0.2,0.4 0.4,0.4 h 0.8 c 0.2,0 0.4,-0.2 0.4,-0.4 0,-0.2 -0.2,-0.4 -0.4,-0.4 z"
           id="path492"
           inkscape:connector-curvature="0"
           style="fill:#221f1f" /><path
           d="m 66.4,51.6 c -0.2,0 -0.4,0.2 -0.4,0.4 0,0.2 0.2,0.4 0.4,0.4 h 0.8 c 0.2,0 0.4,-0.2 0.4,-0.4 0,-0.2 -0.2,-0.4 -0.4,-0.4 z"
           id="path494"
           inkscape:connector-curvature="0"
           style="fill:#221f1f" /><path
           d="m 78.8,51.6 c -0.2,0 -0.4,0.2 -0.4,0.4 0,0.2 0.2,0.4 0.4,0.4 h 0.8 c 0.2,0 0.4,-0.2 0.4,-0.4 0,-0.2 -0.2,-0.4 -0.4,-0.4 z"
           id="path496"
           inkscape:connector-curvature="0"
           style="fill:#221f1f" /><path
           d="m 63.7,52.2 c -0.1,0.2 -0.1,0.4 0.1,0.6 0.1,0 0.1,0.1 0.2,0.1 0.1,0 0.3,-0.1 0.3,-0.2 0.1,-0.1 0.2,-0.2 0.4,-0.2 0.2,0 0.4,-0.2 0.4,-0.4 0,-0.2 -0.2,-0.4 -0.4,-0.4 -0.4,-0.1 -0.7,0.1 -1,0.5 z"
           id="path498"
           inkscape:connector-curvature="0"
           style="fill:#221f1f" /><path
           d="m 71.4,51.6 c -0.2,0 -0.4,0.2 -0.4,0.4 0,0.2 0.2,0.4 0.4,0.4 h 0.8 c 0.2,0 0.4,-0.2 0.4,-0.4 0,-0.2 -0.2,-0.4 -0.4,-0.4 z"
           id="path500"
           inkscape:connector-curvature="0"
           style="fill:#221f1f" /><path
           d="m 73.8,51.6 c -0.2,0 -0.4,0.2 -0.4,0.4 0,0.2 0.2,0.4 0.4,0.4 h 0.8 c 0.2,0 0.4,-0.2 0.4,-0.4 0,-0.2 -0.2,-0.4 -0.4,-0.4 z"
           id="path502"
           inkscape:connector-curvature="0"
           style="fill:#221f1f" /><path
           d="m 76.3,51.6 c -0.2,0 -0.4,0.2 -0.4,0.4 0,0.2 0.2,0.4 0.4,0.4 h 0.8 c 0.2,0 0.4,-0.2 0.4,-0.4 0,-0.2 -0.2,-0.4 -0.4,-0.4 z"
           id="path504"
           inkscape:connector-curvature="0"
           style="fill:#221f1f" /><path
           d="m 75.6,77.9 h -0.8 c -0.2,0 -0.4,0.2 -0.4,0.4 0,0.2 0.2,0.4 0.4,0.4 h 0.8 c 0.2,0 0.4,-0.2 0.4,-0.4 0,-0.3 -0.2,-0.4 -0.4,-0.4 z"
           id="path506"
           inkscape:connector-curvature="0"
           style="fill:#221f1f" /><path
           d="m 83,77.9 h -0.8 c -0.2,0 -0.4,0.2 -0.4,0.4 0,0.2 0.2,0.4 0.4,0.4 H 83 c 0.2,0 0.4,-0.2 0.4,-0.4 0,-0.3 -0.2,-0.4 -0.4,-0.4 z"
           id="path508"
           inkscape:connector-curvature="0"
           style="fill:#221f1f" /><path
           d="m 89.9,77.6 c -0.1,0.1 -0.2,0.2 -0.4,0.2 -0.2,0 -0.4,0.2 -0.4,0.4 0,0.2 0.2,0.4 0.4,0.4 0,0 0,0 0,0 0.4,0 0.8,-0.2 1,-0.6 0.1,-0.2 0.1,-0.4 -0.1,-0.6 -0.1,0 -0.3,0.1 -0.5,0.2 z"
           id="path510"
           inkscape:connector-curvature="0"
           style="fill:#221f1f" /><path
           d="m 90.4,54.4 c 0.2,0 0.4,-0.2 0.4,-0.4 V 53.2 C 90.8,53 90.6,52.8 90.4,52.8 90.2,52.8 90,53 90,53.2 V 54 c 0,0.2 0.2,0.4 0.4,0.4 z"
           id="path512"
           inkscape:connector-curvature="0"
           style="fill:#221f1f" /><path
           d="m 73.1,77.9 h -0.8 c -0.2,0 -0.4,0.2 -0.4,0.4 0,0.2 0.2,0.4 0.4,0.4 h 0.8 c 0.2,0 0.4,-0.2 0.4,-0.4 0,-0.3 -0.2,-0.4 -0.4,-0.4 z"
           id="path514"
           inkscape:connector-curvature="0"
           style="fill:#221f1f" /><path
           d="m 90.4,71.7 c 0.2,0 0.4,-0.2 0.4,-0.4 v -0.8 c 0,-0.2 -0.2,-0.4 -0.4,-0.4 -0.2,0 -0.4,0.2 -0.4,0.4 v 0.8 c 0,0.2 0.2,0.4 0.4,0.4 z"
           id="path516"
           inkscape:connector-curvature="0"
           style="fill:#221f1f" /><path
           d="m 78,77.9 h -0.8 c -0.2,0 -0.4,0.2 -0.4,0.4 0,0.2 0.2,0.4 0.4,0.4 H 78 c 0.2,0 0.4,-0.2 0.4,-0.4 0,-0.3 -0.1,-0.4 -0.4,-0.4 z"
           id="path518"
           inkscape:connector-curvature="0"
           style="fill:#221f1f" /><path
           d="m 80.5,77.9 h -0.8 c -0.2,0 -0.4,0.2 -0.4,0.4 0,0.2 0.2,0.4 0.4,0.4 h 0.8 c 0.2,0 0.4,-0.2 0.4,-0.4 0,-0.3 -0.2,-0.4 -0.4,-0.4 z"
           id="path520"
           inkscape:connector-curvature="0"
           style="fill:#221f1f" /><path
           d="m 90.4,56.9 c 0.2,0 0.4,-0.2 0.4,-0.4 v -0.8 c 0,-0.2 -0.2,-0.4 -0.4,-0.4 -0.2,0 -0.4,0.2 -0.4,0.4 v 0.8 c 0,0.2 0.2,0.4 0.4,0.4 z"
           id="path522"
           inkscape:connector-curvature="0"
           style="fill:#221f1f" /><path
           d="m 90.4,61.8 c 0.2,0 0.4,-0.2 0.4,-0.4 v -0.8 c 0,-0.2 -0.2,-0.4 -0.4,-0.4 -0.2,0 -0.4,0.2 -0.4,0.4 v 0.8 c 0,0.2 0.2,0.4 0.4,0.4 z"
           id="path524"
           inkscape:connector-curvature="0"
           style="fill:#221f1f" /><path
           d="m 90.4,59.3 c 0.2,0 0.4,-0.2 0.4,-0.4 v -0.8 c 0,-0.2 -0.2,-0.4 -0.4,-0.4 -0.2,0 -0.4,0.2 -0.4,0.4 v 0.8 c 0,0.2 0.2,0.4 0.4,0.4 z"
           id="path526"
           inkscape:connector-curvature="0"
           style="fill:#221f1f" /><path
           d="m 90.4,64.3 c 0.2,0 0.4,-0.2 0.4,-0.4 V 63 c 0,-0.2 -0.2,-0.4 -0.4,-0.4 -0.2,0 -0.4,0.2 -0.4,0.4 v 0.8 c 0,0.3 0.2,0.5 0.4,0.5 z"
           id="path528"
           inkscape:connector-curvature="0"
           style="fill:#221f1f" /><path
           d="m 90.4,69.2 c 0.2,0 0.4,-0.2 0.4,-0.4 V 68 c 0,-0.2 -0.2,-0.4 -0.4,-0.4 -0.2,0 -0.4,0.2 -0.4,0.4 v 0.8 c 0,0.3 0.2,0.4 0.4,0.4 z"
           id="path530"
           inkscape:connector-curvature="0"
           style="fill:#221f1f" /><path
           d="m 90.4,66.8 c 0.2,0 0.4,-0.2 0.4,-0.4 v -0.8 c 0,-0.2 -0.2,-0.4 -0.4,-0.4 -0.2,0 -0.4,0.2 -0.4,0.4 v 0.8 c 0,0.2 0.2,0.4 0.4,0.4 z"
           id="path532"
           inkscape:connector-curvature="0"
           style="fill:#221f1f" /><path
           d="m 80.6,55.3 v 0 c 0,-0.3 -0.2,-0.5 -0.4,-0.5 -0.1,0 -0.1,0 -0.2,0 0,0 -0.1,0 -0.1,0 -0.1,0 -0.1,0 -0.2,0 -0.4,0.1 -0.7,0.4 -0.7,0.8 v 11.3 h -1.6 l 0.4,0.6 c 0,0 -0.1,0 -0.1,0 h -0.8 c -0.2,0 -0.4,0.2 -0.4,0.4 0,0.2 0.2,0.4 0.4,0.4 h 0.8 c 0.2,0 0.3,-0.1 0.4,-0.3 l 1.8,3.1 2.5,-4.3 H 80.8 V 55.5 c -0.1,0.1 -0.2,0 -0.2,-0.2 z"
           id="path534"
           inkscape:connector-curvature="0"
           style="fill:#221f1f" /><path
           d="m 77.3,72.3 c -0.2,0 -0.4,0.1 -0.6,0.2 -0.1,0.1 -0.1,0.2 -0.2,0.3 -0.1,0.1 -0.1,0.2 -0.1,0.3 0,0.1 0.1,0.2 0.1,0.3 0.1,0.3 0.4,0.5 0.8,0.5 h 5.2 c 0.5,0 0.8,-0.4 0.8,-0.8 0,-0.5 -0.4,-0.8 -0.8,-0.8 z"
           id="path536"
           inkscape:connector-curvature="0"
           style="fill:#221f1f" /><path
           d="m 47.6,111.4 c 0,0.5 0.4,0.8 0.8,0.8 h 47.2 c 0.5,0 0.8,-0.4 0.8,-0.8 V 37 c 0,-0.9 -0.6,-1.8 -1.4,-2.2 L 87.9,31.6 H 57.2 L 49,34.8 C 48.1,35.2 47.5,36 47.5,37 Z m 9.9,-78.1 h 30 l 6.5,3 H 50.1 Z m -8.3,4.6 H 94.8 V 82.2 C 94.5,82.1 94.3,82 94,82 H 50 c -0.3,0 -0.5,0.1 -0.8,0.1 z m 0,46.6 c 0,-0.5 0.3,-0.8 0.8,-0.8 h 44 c 0.4,0 0.8,0.4 0.8,0.8 v 11.4 0.3 C 94.8,96.7 94.5,97 94,97 H 50 c -0.4,0 -0.8,-0.4 -0.8,-0.8 V 96 Z m 45.6,26.1 H 49.2 v -12 h 45.6 z"
           id="path538"
           inkscape:connector-curvature="0"
           style="fill:#221f1f" /></g></g></g></svg>