<?xml version="1.0" encoding="UTF-8" standalone="no"?>
<!-- Generator: Adobe Illustrator 17.1.0, SVG Export Plug-In . SVG Version: 6.00 Build 0)  -->

<svg
   xmlns:dc="http://purl.org/dc/elements/1.1/"
   xmlns:cc="http://creativecommons.org/ns#"
   xmlns:rdf="http://www.w3.org/1999/02/22-rdf-syntax-ns#"
   xmlns:svg="http://www.w3.org/2000/svg"
   xmlns="http://www.w3.org/2000/svg"
   xmlns:sodipodi="http://sodipodi.sourceforge.net/DTD/sodipodi-0.dtd"
   xmlns:inkscape="http://www.inkscape.org/namespaces/inkscape"
   version="1.1"
   id="Layer_1"
   x="0px"
   y="0px"
   viewBox="0 0 174.77721 73.398003"
   enable-background="new 0 0 216 216"
   xml:space="preserve"
   sodipodi:docname="Icon_RH_Hardware_Datacenter-A_RGB_Shiny.svg"
   width="174.77721"
   height="73.398003"
   inkscape:version="0.92.1 r"><metadata
     id="metadata256"><rdf:RDF><cc:Work
         rdf:about=""><dc:format>image/svg+xml</dc:format><dc:type
           rdf:resource="http://purl.org/dc/dcmitype/StillImage" /></cc:Work></rdf:RDF></metadata><defs
     id="defs254" /><sodipodi:namedview
     pagecolor="#ffffff"
     bordercolor="#666666"
     borderopacity="1"
     objecttolerance="10"
     gridtolerance="10"
     guidetolerance="10"
     inkscape:pageopacity="0"
     inkscape:pageshadow="2"
     inkscape:window-width="640"
     inkscape:window-height="480"
     id="namedview252"
     showgrid="false"
     inkscape:zoom="1.0925926"
     inkscape:cx="87.6"
     inkscape:cy="35.707"
     inkscape:window-x="0"
     inkscape:window-y="27"
     inkscape:window-maximized="0"
     inkscape:current-layer="Layer_1" /><linearGradient
     id="SVGID_1_"
     gradientUnits="userSpaceOnUse"
     x1="47.1675"
     y1="48.628799"
     x2="168.412"
     y2="169.87331"
     gradientTransform="translate(-20.4,-70.309)"><stop
       offset="0"
       style="stop-color:#E6E6E6"
       id="stop64" /><stop
       offset="0.5"
       style="stop-color:#F7F7F7"
       id="stop66" /><stop
       offset="1"
       style="stop-color:#C4C4C4"
       id="stop68" /></linearGradient><path
     d="m 174.727,5.753 c 0.119,-0.452 -0.072,-0.938 -0.508,-1.15 l -26.195,-4.5 C 147.888,0.035 146.738,0 146.586,0 H 106.918 105.449 70.546 69.167 28.699 C 28.564,0 27.432,0.027 27.307,0.079 L 0.608,4.579 C 0.145,4.777 -0.075,5.282 0.052,5.756 0.03,5.841 0,5.923 0,6.015 v 16.56 16.559 c 0,0.023 0.012,0.043 0.014,0.065 C 0.012,39.222 0,39.242 0,39.265 v 16.56 16.559 c 0,0.552 0.447,1 1,1 h 57.527 c 0.01,0 0.019,-0.006 0.028,-0.006 0.01,0 0.019,0.006 0.028,0.006 h 57.528 c 0.024,0 0.045,-0.013 0.069,-0.014 0.024,10e-4 0.045,0.014 0.069,0.014 h 57.528 c 0.553,0 1,-0.448 1,-1 V 55.825 39.265 c 0,-0.023 -0.012,-0.043 -0.014,-0.066 0.002,-0.022 0.014,-0.042 0.014,-0.065 V 22.574 6.014 c 0.003,-0.092 -0.027,-0.176 -0.05,-0.261 z"
     id="path71"
     inkscape:connector-curvature="0"
     style="fill:url(#SVGID_1_)" /><g
     id="g249"
     transform="translate(-20.4,-70.309)"><polygon
       points="78.252,75.338 85.055,72.323 48.303,72.323 30.386,75.338 "
       id="polygon73"
       style="fill:none" /><rect
       x="187"
       y="131"
       width="2"
       height="7"
       id="rect75"
       style="fill:none" /><rect
       x="181"
       y="131"
       width="2"
       height="7"
       id="rect77"
       style="fill:none" /><polygon
       points="137.562,75.338 185.72,75.338 167.754,72.323 131.545,72.323 "
       id="polygon79"
       style="fill:none" /><rect
       x="66"
       y="81"
       width="2"
       height="7"
       id="rect81"
       style="fill:none" /><path
       d="m 22.4,91.898 h 55.527 v -4.423 -4.98 -5.156 H 22.4 Z M 71,80.5 C 71,80.224 71.225,80 71.501,80 h 2.998 C 74.775,80 75,80.224 75,80.5 v 8 C 75,88.776 74.775,89 74.499,89 H 71.501 C 71.225,89 71,88.776 71,88.5 Z m -6,0 C 65,80.224 65.224,80 65.5,80 h 3 c 0.276,0 0.5,0.224 0.5,0.5 v 8 c 0,0.276 -0.224,0.5 -0.5,0.5 h -3 C 65.224,89 65,88.776 65,88.5 Z m -32.697,3.116 c 0.759,0 1.375,0.615 1.375,1.375 0,0.76 -0.616,1.375 -1.375,1.375 -0.76,0 -1.375,-0.615 -1.375,-1.375 0,-0.76 0.615,-1.375 1.375,-1.375 z m -4.879,0 c 0.761,0 1.376,0.615 1.376,1.375 0,0.76 -0.615,1.375 -1.376,1.375 -0.759,0 -1.375,-0.615 -1.375,-1.375 0,-0.76 0.616,-1.375 1.375,-1.375 z"
       id="path83"
       inkscape:connector-curvature="0"
       style="fill:none" /><path
       d="m 137.651,141.706 h 55.528 v -4.789 -4.981 -4.789 H 137.651 Z M 186,130.5 c 0,-0.276 0.225,-0.5 0.501,-0.5 h 2.998 c 0.276,0 0.501,0.224 0.501,0.5 v 8 c 0,0.276 -0.225,0.5 -0.501,0.5 h -2.998 C 186.225,139 186,138.776 186,138.5 Z m -6,0 c 0,-0.276 0.224,-0.5 0.5,-0.5 h 3 c 0.276,0 0.5,0.224 0.5,0.5 v 8 c 0,0.276 -0.224,0.5 -0.5,0.5 h -3 c -0.276,0 -0.5,-0.224 -0.5,-0.5 z m -32.697,3.116 c 0.759,0 1.375,0.615 1.375,1.375 0,0.76 -0.616,1.375 -1.375,1.375 -0.76,0 -1.375,-0.615 -1.375,-1.375 0,-0.76 0.615,-1.375 1.375,-1.375 z m -4.879,0 c 0.761,0 1.376,0.615 1.376,1.375 0,0.76 -0.615,1.375 -1.376,1.375 -0.759,0 -1.375,-0.615 -1.375,-1.375 0,-0.76 0.616,-1.375 1.375,-1.375 z"
       id="path85"
       inkscape:connector-curvature="0"
       style="fill:none" /><rect
       x="187"
       y="114"
       width="2"
       height="7"
       id="rect87"
       style="fill:none" /><rect
       x="72"
       y="81"
       width="2"
       height="7"
       id="rect89"
       style="fill:none" /><path
       d="m 79.984,91.898 h 55.528 v -4.423 -4.98 -5.156 H 79.984 Z M 129,80.5 c 0,-0.276 0.225,-0.5 0.501,-0.5 h 2.998 c 0.276,0 0.501,0.224 0.501,0.5 v 8 c 0,0.276 -0.225,0.5 -0.501,0.5 h -2.998 C 129.225,89 129,88.776 129,88.5 Z m -6,0 c 0,-0.276 0.224,-0.5 0.5,-0.5 h 3 c 0.276,0 0.5,0.224 0.5,0.5 v 8 c 0,0.276 -0.224,0.5 -0.5,0.5 h -3 c -0.276,0 -0.5,-0.224 -0.5,-0.5 z m -32.697,3.116 c 0.759,0 1.375,0.615 1.375,1.375 0,0.76 -0.616,1.375 -1.375,1.375 -0.76,0 -1.375,-0.615 -1.375,-1.375 0,-0.76 0.615,-1.375 1.375,-1.375 z m -4.879,0 c 0.761,0 1.376,0.615 1.376,1.375 0,0.76 -0.615,1.375 -1.376,1.375 -0.759,0 -1.375,-0.615 -1.375,-1.375 0,-0.76 0.616,-1.375 1.375,-1.375 z"
       id="path91"
       inkscape:connector-curvature="0"
       style="fill:none" /><rect
       x="130"
       y="131"
       width="2"
       height="7"
       id="rect93"
       style="fill:none" /><path
       d="m 79.984,108.456 h 55.528 v -4.789 -4.98 -4.789 H 79.984 Z M 129,97.5 c 0,-0.276 0.225,-0.5 0.501,-0.5 h 2.998 c 0.276,0 0.501,0.224 0.501,0.5 v 8 c 0,0.276 -0.225,0.5 -0.501,0.5 h -2.998 C 129.225,106 129,105.776 129,105.5 Z m -6,0 c 0,-0.276 0.224,-0.5 0.5,-0.5 h 3 c 0.276,0 0.5,0.224 0.5,0.5 v 8 c 0,0.276 -0.224,0.5 -0.5,0.5 h -3 c -0.276,0 -0.5,-0.224 -0.5,-0.5 z m -32.697,3.116 c 0.759,0 1.375,0.615 1.375,1.375 0,0.76 -0.616,1.375 -1.375,1.375 -0.76,0 -1.375,-0.615 -1.375,-1.375 0,-0.76 0.615,-1.375 1.375,-1.375 z m -4.879,0 c 0.761,0 1.376,0.615 1.376,1.375 0,0.76 -0.615,1.375 -1.376,1.375 -0.759,0 -1.375,-0.615 -1.375,-1.375 0,-0.76 0.616,-1.375 1.375,-1.375 z"
       id="path95"
       inkscape:connector-curvature="0"
       style="fill:none" /><rect
       x="130"
       y="114"
       width="2"
       height="7"
       id="rect97"
       style="fill:none" /><rect
       x="124"
       y="114"
       width="2"
       height="7"
       id="rect99"
       style="fill:none" /><rect
       x="124"
       y="98"
       width="2"
       height="7"
       id="rect101"
       style="fill:none" /><path
       d="m 79.984,125.147 h 55.528 v -4.423 -4.98 -5.156 H 79.984 Z M 129,113.5 c 0,-0.276 0.225,-0.5 0.501,-0.5 h 2.998 c 0.276,0 0.501,0.224 0.501,0.5 v 8 c 0,0.276 -0.225,0.5 -0.501,0.5 h -2.998 C 129.225,122 129,121.776 129,121.5 Z m -6,0 c 0,-0.276 0.224,-0.5 0.5,-0.5 h 3 c 0.276,0 0.5,0.224 0.5,0.5 v 8 c 0,0.276 -0.224,0.5 -0.5,0.5 h -3 c -0.276,0 -0.5,-0.224 -0.5,-0.5 z m -32.697,3.116 c 0.759,0 1.375,0.615 1.375,1.375 0,0.76 -0.616,1.375 -1.375,1.375 -0.76,0 -1.375,-0.615 -1.375,-1.375 0,-0.76 0.615,-1.375 1.375,-1.375 z m -4.879,0 c 0.761,0 1.376,0.615 1.376,1.375 0,0.76 -0.615,1.375 -1.376,1.375 -0.759,0 -1.375,-0.615 -1.375,-1.375 0,-0.76 0.616,-1.375 1.375,-1.375 z"
       id="path103"
       inkscape:connector-curvature="0"
       style="fill:none" /><path
       d="m 79.984,141.706 h 55.528 v -4.789 -4.981 -4.789 H 79.984 Z M 129,130.5 c 0,-0.276 0.225,-0.5 0.501,-0.5 h 2.998 c 0.276,0 0.501,0.224 0.501,0.5 v 8 c 0,0.276 -0.225,0.5 -0.501,0.5 h -2.998 C 129.225,139 129,138.776 129,138.5 Z m -6,0 c 0,-0.276 0.224,-0.5 0.5,-0.5 h 3 c 0.276,0 0.5,0.224 0.5,0.5 v 8 c 0,0.276 -0.224,0.5 -0.5,0.5 h -3 c -0.276,0 -0.5,-0.224 -0.5,-0.5 z m -32.697,3.116 c 0.759,0 1.375,0.615 1.375,1.375 0,0.76 -0.616,1.375 -1.375,1.375 -0.76,0 -1.375,-0.615 -1.375,-1.375 0,-0.76 0.615,-1.375 1.375,-1.375 z m -4.879,0 c 0.761,0 1.376,0.615 1.376,1.375 0,0.76 -0.615,1.375 -1.376,1.375 -0.759,0 -1.375,-0.615 -1.375,-1.375 0,-0.76 0.616,-1.375 1.375,-1.375 z"
       id="path105"
       inkscape:connector-curvature="0"
       style="fill:none" /><rect
       x="124"
       y="81"
       width="2"
       height="7"
       id="rect107"
       style="fill:none" /><rect
       x="130"
       y="81"
       width="2"
       height="7"
       id="rect109"
       style="fill:none" /><rect
       x="124"
       y="131"
       width="2"
       height="7"
       id="rect111"
       style="fill:none" /><path
       d="m 22.4,108.456 h 55.527 v -4.789 -4.98 -4.789 H 22.4 Z M 71,97.5 C 71,97.224 71.225,97 71.501,97 h 2.998 C 74.775,97 75,97.224 75,97.5 v 8 c 0,0.276 -0.225,0.5 -0.501,0.5 H 71.501 C 71.225,106 71,105.776 71,105.5 Z m -6,0 C 65,97.224 65.224,97 65.5,97 h 3 c 0.276,0 0.5,0.224 0.5,0.5 v 8 c 0,0.276 -0.224,0.5 -0.5,0.5 h -3 c -0.276,0 -0.5,-0.224 -0.5,-0.5 z m -32.697,3.116 c 0.759,0 1.375,0.615 1.375,1.375 0,0.76 -0.616,1.375 -1.375,1.375 -0.76,0 -1.375,-0.615 -1.375,-1.375 0,-0.76 0.615,-1.375 1.375,-1.375 z m -4.879,0 c 0.761,0 1.376,0.615 1.376,1.375 0,0.76 -0.615,1.375 -1.376,1.375 -0.759,0 -1.375,-0.615 -1.375,-1.375 0,-0.76 0.616,-1.375 1.375,-1.375 z"
       id="path113"
       inkscape:connector-curvature="0"
       style="fill:none" /><rect
       x="72"
       y="98"
       width="2"
       height="7"
       id="rect115"
       style="fill:none" /><rect
       x="181"
       y="114"
       width="2"
       height="7"
       id="rect117"
       style="fill:none" /><rect
       x="72"
       y="131"
       width="2"
       height="7"
       id="rect119"
       style="fill:none" /><path
       d="m 137.651,108.456 h 55.528 v -4.789 -4.98 -4.789 H 137.651 Z M 186,97.5 c 0,-0.276 0.225,-0.5 0.501,-0.5 h 2.998 c 0.276,0 0.501,0.224 0.501,0.5 v 8 c 0,0.276 -0.225,0.5 -0.501,0.5 h -2.998 C 186.225,106 186,105.776 186,105.5 Z m -6,0 c 0,-0.276 0.224,-0.5 0.5,-0.5 h 3 c 0.276,0 0.5,0.224 0.5,0.5 v 8 c 0,0.276 -0.224,0.5 -0.5,0.5 h -3 c -0.276,0 -0.5,-0.224 -0.5,-0.5 z m -32.697,3.116 c 0.759,0 1.375,0.615 1.375,1.375 0,0.76 -0.616,1.375 -1.375,1.375 -0.76,0 -1.375,-0.615 -1.375,-1.375 0,-0.76 0.615,-1.375 1.375,-1.375 z m -4.879,0 c 0.761,0 1.376,0.615 1.376,1.375 0,0.76 -0.615,1.375 -1.376,1.375 -0.759,0 -1.375,-0.615 -1.375,-1.375 0,-0.76 0.616,-1.375 1.375,-1.375 z"
       id="path121"
       inkscape:connector-curvature="0"
       style="fill:none" /><rect
       x="181"
       y="81"
       width="2"
       height="7"
       id="rect123"
       style="fill:none" /><polygon
       points="89.188,72.323 82.682,75.338 133.247,75.338 127.594,72.323 "
       id="polygon125"
       style="fill:none" /><rect
       x="66"
       y="131"
       width="2"
       height="7"
       id="rect127"
       style="fill:none" /><path
       d="m 137.651,91.898 h 55.528 v -4.423 -4.98 -5.156 H 137.651 Z M 186,80.5 c 0,-0.276 0.225,-0.5 0.501,-0.5 h 2.998 c 0.276,0 0.501,0.224 0.501,0.5 v 8 c 0,0.276 -0.225,0.5 -0.501,0.5 h -2.998 C 186.225,89 186,88.776 186,88.5 Z m -6,0 c 0,-0.276 0.224,-0.5 0.5,-0.5 h 3 c 0.276,0 0.5,0.224 0.5,0.5 v 8 c 0,0.276 -0.224,0.5 -0.5,0.5 h -3 c -0.276,0 -0.5,-0.224 -0.5,-0.5 z m -32.697,3.116 c 0.759,0 1.375,0.615 1.375,1.375 0,0.76 -0.616,1.375 -1.375,1.375 -0.76,0 -1.375,-0.615 -1.375,-1.375 0,-0.76 0.615,-1.375 1.375,-1.375 z m -4.879,0 c 0.761,0 1.376,0.615 1.376,1.375 0,0.76 -0.615,1.375 -1.376,1.375 -0.759,0 -1.375,-0.615 -1.375,-1.375 0,-0.76 0.616,-1.375 1.375,-1.375 z"
       id="path129"
       inkscape:connector-curvature="0"
       style="fill:none" /><rect
       x="187"
       y="81"
       width="2"
       height="7"
       id="rect131"
       style="fill:none" /><rect
       x="130"
       y="98"
       width="2"
       height="7"
       id="rect133"
       style="fill:none" /><path
       d="m 137.651,125.147 h 55.528 v -4.423 -4.98 -5.156 H 137.651 Z M 186,113.5 c 0,-0.276 0.225,-0.5 0.501,-0.5 h 2.998 c 0.276,0 0.501,0.224 0.501,0.5 v 8 c 0,0.276 -0.225,0.5 -0.501,0.5 h -2.998 C 186.225,122 186,121.776 186,121.5 Z m -6,0 c 0,-0.276 0.224,-0.5 0.5,-0.5 h 3 c 0.276,0 0.5,0.224 0.5,0.5 v 8 c 0,0.276 -0.224,0.5 -0.5,0.5 h -3 c -0.276,0 -0.5,-0.224 -0.5,-0.5 z m -32.697,3.116 c 0.759,0 1.375,0.615 1.375,1.375 0,0.76 -0.616,1.375 -1.375,1.375 -0.76,0 -1.375,-0.615 -1.375,-1.375 0,-0.76 0.615,-1.375 1.375,-1.375 z m -4.879,0 c 0.761,0 1.376,0.615 1.376,1.375 0,0.76 -0.615,1.375 -1.376,1.375 -0.759,0 -1.375,-0.615 -1.375,-1.375 0,-0.76 0.616,-1.375 1.375,-1.375 z"
       id="path135"
       inkscape:connector-curvature="0"
       style="fill:none" /><path
       d="m 22.4,125.147 h 55.527 v -4.423 -4.98 -5.156 H 22.4 Z M 71,113.5 c 0,-0.276 0.225,-0.5 0.501,-0.5 h 2.998 c 0.276,0 0.501,0.224 0.501,0.5 v 8 c 0,0.276 -0.225,0.5 -0.501,0.5 H 71.501 C 71.225,122 71,121.776 71,121.5 Z m -6,0 c 0,-0.276 0.224,-0.5 0.5,-0.5 h 3 c 0.276,0 0.5,0.224 0.5,0.5 v 8 c 0,0.276 -0.224,0.5 -0.5,0.5 h -3 c -0.276,0 -0.5,-0.224 -0.5,-0.5 z m -32.697,3.116 c 0.759,0 1.375,0.615 1.375,1.375 0,0.76 -0.616,1.375 -1.375,1.375 -0.76,0 -1.375,-0.615 -1.375,-1.375 0,-0.76 0.615,-1.375 1.375,-1.375 z m -4.879,0 c 0.761,0 1.376,0.615 1.376,1.375 0,0.76 -0.615,1.375 -1.376,1.375 -0.759,0 -1.375,-0.615 -1.375,-1.375 0,-0.76 0.616,-1.375 1.375,-1.375 z"
       id="path137"
       inkscape:connector-curvature="0"
       style="fill:none" /><rect
       x="66"
       y="98"
       width="2"
       height="7"
       id="rect139"
       style="fill:none" /><rect
       x="187"
       y="98"
       width="2"
       height="7"
       id="rect141"
       style="fill:none" /><rect
       x="72"
       y="114"
       width="2"
       height="7"
       id="rect143"
       style="fill:none" /><path
       d="m 22.4,141.706 h 55.527 v -4.789 -4.981 -4.789 H 22.4 Z M 71,130.5 c 0,-0.276 0.225,-0.5 0.501,-0.5 h 2.998 c 0.276,0 0.501,0.224 0.501,0.5 v 8 c 0,0.276 -0.225,0.5 -0.501,0.5 H 71.501 C 71.225,139 71,138.776 71,138.5 Z m -6,0 c 0,-0.276 0.224,-0.5 0.5,-0.5 h 3 c 0.276,0 0.5,0.224 0.5,0.5 v 8 c 0,0.276 -0.224,0.5 -0.5,0.5 h -3 c -0.276,0 -0.5,-0.224 -0.5,-0.5 z m -32.697,3.116 c 0.759,0 1.375,0.615 1.375,1.375 0,0.76 -0.616,1.375 -1.375,1.375 -0.76,0 -1.375,-0.615 -1.375,-1.375 0,-0.76 0.615,-1.375 1.375,-1.375 z m -4.879,0 c 0.761,0 1.376,0.615 1.376,1.375 0,0.76 -0.615,1.375 -1.376,1.375 -0.759,0 -1.375,-0.615 -1.375,-1.375 0,-0.76 0.616,-1.375 1.375,-1.375 z"
       id="path145"
       inkscape:connector-curvature="0"
       style="fill:none" /><rect
       x="181"
       y="98"
       width="2"
       height="7"
       id="rect147"
       style="fill:none" /><rect
       x="66"
       y="114"
       width="2"
       height="7"
       id="rect149"
       style="fill:none" /><path
       d="m 195.127,76.076 c 0.119,-0.452 -0.072,-0.938 -0.508,-1.15 l -26.195,-4.5 c -0.136,-0.068 -1.286,-0.103 -1.438,-0.103 H 127.318 125.849 90.946 89.567 49.099 c -0.135,0 -1.267,0.027 -1.392,0.079 l -26.699,4.5 C 20.545,75.1 20.325,75.605 20.452,76.079 20.43,76.164 20.4,76.246 20.4,76.338 v 16.56 16.559 c 0,0.023 0.012,0.043 0.014,0.065 -0.002,0.023 -0.014,0.043 -0.014,0.066 v 16.56 16.559 c 0,0.552 0.447,1 1,1 h 57.527 c 0.01,0 0.019,-0.006 0.028,-0.006 0.01,0 0.019,0.006 0.028,0.006 h 57.528 c 0.024,0 0.045,-0.013 0.069,-0.014 0.024,10e-4 0.045,0.014 0.069,0.014 h 57.528 c 0.553,0 1,-0.448 1,-1 v -16.559 -16.56 c 0,-0.023 -0.012,-0.043 -0.014,-0.066 0.002,-0.022 0.014,-0.042 0.014,-0.065 V 92.898 76.338 c 0.003,-0.093 -0.027,-0.177 -0.05,-0.262 z m -67.533,-3.753 5.653,3.015 H 82.682 l 6.507,-3.015 z m -49.666,59.613 v 4.981 4.789 H 22.4 v -14.559 h 55.527 v 4.789 z m 0,-16.192 v 4.98 4.423 H 22.4 v -14.56 h 55.527 v 5.157 z m 0,-17.057 v 4.98 4.789 H 22.4 V 93.898 h 55.527 v 4.789 z m 0,-16.193 v 4.98 4.423 H 22.4 v -14.56 h 55.527 v 5.157 z m 0.324,-7.156 H 30.386 l 17.917,-3.015 h 36.752 z m 57.261,56.598 v 4.981 4.789 H 79.984 v -14.559 h 55.528 v 4.789 z m 0,-16.192 v 4.98 4.423 H 79.984 v -14.56 h 55.528 v 5.157 z m 0,-17.057 v 4.98 4.789 H 79.984 V 93.898 h 55.528 v 4.789 z m 0,-16.193 v 4.98 4.423 H 79.984 v -14.56 h 55.528 v 5.157 z m -3.968,-10.171 h 36.209 l 17.966,3.015 h -48.157 z m 61.635,59.613 v 4.981 4.789 h -55.528 v -14.559 h 55.528 z m 0,-16.192 v 4.98 4.423 h -55.528 v -14.56 h 55.528 z m 0,-17.057 v 4.98 4.789 H 137.652 V 93.898 h 55.528 z m 0,-16.193 v 4.98 4.423 h -55.528 v -14.56 h 55.528 z"
       id="path151"
       inkscape:connector-curvature="0" /><circle
       cx="27.424"
       cy="84.990997"
       r="1.375"
       id="circle153"
       style="fill:#010101" /><circle
       cx="32.303001"
       cy="84.990997"
       r="1.375"
       id="circle155"
       style="fill:#010101" /><path
       d="m 71.501,89 h 2.998 C 74.775,89 75,88.776 75,88.5 v -8 C 75,80.224 74.775,80 74.499,80 H 71.501 C 71.225,80 71,80.224 71,80.5 v 8 c 0,0.276 0.225,0.5 0.501,0.5 z M 72,81 h 2 v 7 h -2 z"
       id="path157"
       inkscape:connector-curvature="0"
       style="fill:#010101" /><path
       d="m 65.5,89 h 3 c 0.276,0 0.5,-0.224 0.5,-0.5 v -8 C 69,80.224 68.776,80 68.5,80 h -3 C 65.224,80 65,80.224 65,80.5 v 8 c 0,0.276 0.224,0.5 0.5,0.5 z M 66,81 h 2 v 7 h -2 z"
       id="path159"
       inkscape:connector-curvature="0"
       style="fill:#010101" /><circle
       cx="27.424"
       cy="101.991"
       r="1.375"
       id="circle161"
       style="fill:#010101" /><circle
       cx="32.303001"
       cy="101.991"
       r="1.375"
       id="circle163"
       style="fill:#010101" /><path
       d="m 71.501,106 h 2.998 C 74.775,106 75,105.776 75,105.5 v -8 C 75,97.224 74.775,97 74.499,97 H 71.501 C 71.225,97 71,97.224 71,97.5 v 8 c 0,0.276 0.225,0.5 0.501,0.5 z M 72,98 h 2 v 7 h -2 z"
       id="path165"
       inkscape:connector-curvature="0"
       style="fill:#010101" /><path
       d="m 65.5,106 h 3 c 0.276,0 0.5,-0.224 0.5,-0.5 v -8 C 69,97.224 68.776,97 68.5,97 h -3 C 65.224,97 65,97.224 65,97.5 v 8 c 0,0.276 0.224,0.5 0.5,0.5 z M 66,98 h 2 v 7 h -2 z"
       id="path167"
       inkscape:connector-curvature="0"
       style="fill:#010101" /><circle
       cx="27.424"
       cy="117.991"
       r="1.375"
       id="circle169"
       style="fill:#010101" /><circle
       cx="32.303001"
       cy="117.991"
       r="1.375"
       id="circle171"
       style="fill:#010101" /><path
       d="m 71.501,122 h 2.998 C 74.775,122 75,121.776 75,121.5 v -8 C 75,113.224 74.775,113 74.499,113 H 71.501 C 71.225,113 71,113.224 71,113.5 v 8 c 0,0.276 0.225,0.5 0.501,0.5 z M 72,114 h 2 v 7 h -2 z"
       id="path173"
       inkscape:connector-curvature="0"
       style="fill:#010101" /><path
       d="m 65.5,122 h 3 c 0.276,0 0.5,-0.224 0.5,-0.5 v -8 c 0,-0.276 -0.224,-0.5 -0.5,-0.5 h -3 c -0.276,0 -0.5,0.224 -0.5,0.5 v 8 c 0,0.276 0.224,0.5 0.5,0.5 z m 0.5,-8 h 2 v 7 h -2 z"
       id="path175"
       inkscape:connector-curvature="0"
       style="fill:#010101" /><circle
       cx="27.424"
       cy="134.991"
       r="1.375"
       id="circle177"
       style="fill:#010101" /><circle
       cx="32.303001"
       cy="134.991"
       r="1.375"
       id="circle179"
       style="fill:#010101" /><path
       d="m 71.501,139 h 2.998 C 74.775,139 75,138.776 75,138.5 v -8 C 75,130.224 74.775,130 74.499,130 H 71.501 C 71.225,130 71,130.224 71,130.5 v 8 c 0,0.276 0.225,0.5 0.501,0.5 z M 72,131 h 2 v 7 h -2 z"
       id="path181"
       inkscape:connector-curvature="0"
       style="fill:#010101" /><path
       d="m 65.5,139 h 3 c 0.276,0 0.5,-0.224 0.5,-0.5 v -8 c 0,-0.276 -0.224,-0.5 -0.5,-0.5 h -3 c -0.276,0 -0.5,0.224 -0.5,0.5 v 8 c 0,0.276 0.224,0.5 0.5,0.5 z m 0.5,-8 h 2 v 7 h -2 z"
       id="path183"
       inkscape:connector-curvature="0"
       style="fill:#010101" /><circle
       cx="85.424004"
       cy="84.990997"
       r="1.375"
       id="circle185"
       style="fill:#010101" /><circle
       cx="90.303001"
       cy="84.990997"
       r="1.375"
       id="circle187"
       style="fill:#010101" /><path
       d="m 129.501,89 h 2.998 C 132.775,89 133,88.776 133,88.5 v -8 c 0,-0.276 -0.225,-0.5 -0.501,-0.5 h -2.998 C 129.225,80 129,80.224 129,80.5 v 8 c 0,0.276 0.225,0.5 0.501,0.5 z M 130,81 h 2 v 7 h -2 z"
       id="path189"
       inkscape:connector-curvature="0"
       style="fill:#010101" /><path
       d="m 123.5,89 h 3 c 0.276,0 0.5,-0.224 0.5,-0.5 v -8 c 0,-0.276 -0.224,-0.5 -0.5,-0.5 h -3 c -0.276,0 -0.5,0.224 -0.5,0.5 v 8 c 0,0.276 0.224,0.5 0.5,0.5 z m 0.5,-8 h 2 v 7 h -2 z"
       id="path191"
       inkscape:connector-curvature="0"
       style="fill:#010101" /><circle
       cx="85.424004"
       cy="101.991"
       r="1.375"
       id="circle193"
       style="fill:#010101" /><circle
       cx="90.303001"
       cy="101.991"
       r="1.375"
       id="circle195"
       style="fill:#010101" /><path
       d="m 129.501,106 h 2.998 c 0.276,0 0.501,-0.224 0.501,-0.5 v -8 c 0,-0.276 -0.225,-0.5 -0.501,-0.5 h -2.998 C 129.225,97 129,97.224 129,97.5 v 8 c 0,0.276 0.225,0.5 0.501,0.5 z M 130,98 h 2 v 7 h -2 z"
       id="path197"
       inkscape:connector-curvature="0"
       style="fill:#010101" /><path
       d="m 123.5,106 h 3 c 0.276,0 0.5,-0.224 0.5,-0.5 v -8 c 0,-0.276 -0.224,-0.5 -0.5,-0.5 h -3 c -0.276,0 -0.5,0.224 -0.5,0.5 v 8 c 0,0.276 0.224,0.5 0.5,0.5 z m 0.5,-8 h 2 v 7 h -2 z"
       id="path199"
       inkscape:connector-curvature="0"
       style="fill:#010101" /><circle
       cx="85.424004"
       cy="117.991"
       r="1.375"
       id="circle201"
       style="fill:#010101" /><circle
       cx="90.303001"
       cy="117.991"
       r="1.375"
       id="circle203"
       style="fill:#010101" /><path
       d="m 129.501,122 h 2.998 c 0.276,0 0.501,-0.224 0.501,-0.5 v -8 c 0,-0.276 -0.225,-0.5 -0.501,-0.5 h -2.998 c -0.276,0 -0.501,0.224 -0.501,0.5 v 8 c 0,0.276 0.225,0.5 0.501,0.5 z M 130,114 h 2 v 7 h -2 z"
       id="path205"
       inkscape:connector-curvature="0"
       style="fill:#010101" /><path
       d="m 123.5,122 h 3 c 0.276,0 0.5,-0.224 0.5,-0.5 v -8 c 0,-0.276 -0.224,-0.5 -0.5,-0.5 h -3 c -0.276,0 -0.5,0.224 -0.5,0.5 v 8 c 0,0.276 0.224,0.5 0.5,0.5 z m 0.5,-8 h 2 v 7 h -2 z"
       id="path207"
       inkscape:connector-curvature="0"
       style="fill:#010101" /><circle
       cx="85.424004"
       cy="134.991"
       r="1.375"
       id="circle209"
       style="fill:#010101" /><circle
       cx="90.303001"
       cy="134.991"
       r="1.375"
       id="circle211"
       style="fill:#010101" /><path
       d="m 129.501,139 h 2.998 c 0.276,0 0.501,-0.224 0.501,-0.5 v -8 c 0,-0.276 -0.225,-0.5 -0.501,-0.5 h -2.998 c -0.276,0 -0.501,0.224 -0.501,0.5 v 8 c 0,0.276 0.225,0.5 0.501,0.5 z M 130,131 h 2 v 7 h -2 z"
       id="path213"
       inkscape:connector-curvature="0"
       style="fill:#010101" /><path
       d="m 123.5,139 h 3 c 0.276,0 0.5,-0.224 0.5,-0.5 v -8 c 0,-0.276 -0.224,-0.5 -0.5,-0.5 h -3 c -0.276,0 -0.5,0.224 -0.5,0.5 v 8 c 0,0.276 0.224,0.5 0.5,0.5 z m 0.5,-8 h 2 v 7 h -2 z"
       id="path215"
       inkscape:connector-curvature="0"
       style="fill:#010101" /><circle
       cx="142.424"
       cy="84.990997"
       r="1.375"
       id="circle217"
       style="fill:#010101" /><circle
       cx="147.30299"
       cy="84.990997"
       r="1.375"
       id="circle219"
       style="fill:#010101" /><path
       d="m 186.501,89 h 2.998 C 189.775,89 190,88.776 190,88.5 v -8 c 0,-0.276 -0.225,-0.5 -0.501,-0.5 h -2.998 C 186.225,80 186,80.224 186,80.5 v 8 c 0,0.276 0.225,0.5 0.501,0.5 z M 187,81 h 2 v 7 h -2 z"
       id="path221"
       inkscape:connector-curvature="0"
       style="fill:#010101" /><path
       d="m 180.5,89 h 3 c 0.276,0 0.5,-0.224 0.5,-0.5 v -8 c 0,-0.276 -0.224,-0.5 -0.5,-0.5 h -3 c -0.276,0 -0.5,0.224 -0.5,0.5 v 8 c 0,0.276 0.224,0.5 0.5,0.5 z m 0.5,-8 h 2 v 7 h -2 z"
       id="path223"
       inkscape:connector-curvature="0"
       style="fill:#010101" /><circle
       cx="142.424"
       cy="101.991"
       r="1.375"
       id="circle225"
       style="fill:#010101" /><circle
       cx="147.30299"
       cy="101.991"
       r="1.375"
       id="circle227"
       style="fill:#010101" /><path
       d="m 186.501,106 h 2.998 c 0.276,0 0.501,-0.224 0.501,-0.5 v -8 c 0,-0.276 -0.225,-0.5 -0.501,-0.5 h -2.998 C 186.225,97 186,97.224 186,97.5 v 8 c 0,0.276 0.225,0.5 0.501,0.5 z M 187,98 h 2 v 7 h -2 z"
       id="path229"
       inkscape:connector-curvature="0"
       style="fill:#010101" /><path
       d="m 180.5,106 h 3 c 0.276,0 0.5,-0.224 0.5,-0.5 v -8 c 0,-0.276 -0.224,-0.5 -0.5,-0.5 h -3 c -0.276,0 -0.5,0.224 -0.5,0.5 v 8 c 0,0.276 0.224,0.5 0.5,0.5 z m 0.5,-8 h 2 v 7 h -2 z"
       id="path231"
       inkscape:connector-curvature="0"
       style="fill:#010101" /><circle
       cx="142.424"
       cy="117.991"
       r="1.375"
       id="circle233"
       style="fill:#010101" /><circle
       cx="147.30299"
       cy="117.991"
       r="1.375"
       id="circle235"
       style="fill:#010101" /><path
       d="m 186.501,122 h 2.998 c 0.276,0 0.501,-0.224 0.501,-0.5 v -8 c 0,-0.276 -0.225,-0.5 -0.501,-0.5 h -2.998 c -0.276,0 -0.501,0.224 -0.501,0.5 v 8 c 0,0.276 0.225,0.5 0.501,0.5 z M 187,114 h 2 v 7 h -2 z"
       id="path237"
       inkscape:connector-curvature="0"
       style="fill:#010101" /><path
       d="m 180.5,122 h 3 c 0.276,0 0.5,-0.224 0.5,-0.5 v -8 c 0,-0.276 -0.224,-0.5 -0.5,-0.5 h -3 c -0.276,0 -0.5,0.224 -0.5,0.5 v 8 c 0,0.276 0.224,0.5 0.5,0.5 z m 0.5,-8 h 2 v 7 h -2 z"
       id="path239"
       inkscape:connector-curvature="0"
       style="fill:#010101" /><circle
       cx="142.424"
       cy="134.991"
       r="1.375"
       id="circle241"
       style="fill:#010101" /><circle
       cx="147.30299"
       cy="134.991"
       r="1.375"
       id="circle243"
       style="fill:#010101" /><path
       d="m 186.501,139 h 2.998 c 0.276,0 0.501,-0.224 0.501,-0.5 v -8 c 0,-0.276 -0.225,-0.5 -0.501,-0.5 h -2.998 c -0.276,0 -0.501,0.224 -0.501,0.5 v 8 c 0,0.276 0.225,0.5 0.501,0.5 z M 187,131 h 2 v 7 h -2 z"
       id="path245"
       inkscape:connector-curvature="0"
       style="fill:#010101" /><path
       d="m 180.5,139 h 3 c 0.276,0 0.5,-0.224 0.5,-0.5 v -8 c 0,-0.276 -0.224,-0.5 -0.5,-0.5 h -3 c -0.276,0 -0.5,0.224 -0.5,0.5 v 8 c 0,0.276 0.224,0.5 0.5,0.5 z m 0.5,-8 h 2 v 7 h -2 z"
       id="path247"
       inkscape:connector-curvature="0"
       style="fill:#010101" /></g></svg>