<?xml version="1.0" encoding="UTF-8" standalone="no"?>
<!-- Generator: Adobe Illustrator 17.1.0, SVG Export Plug-In . SVG Version: 6.00 Build 0)  -->

<svg
   xmlns:dc="http://purl.org/dc/elements/1.1/"
   xmlns:cc="http://creativecommons.org/ns#"
   xmlns:rdf="http://www.w3.org/1999/02/22-rdf-syntax-ns#"
   xmlns:svg="http://www.w3.org/2000/svg"
   xmlns="http://www.w3.org/2000/svg"
   xmlns:sodipodi="http://sodipodi.sourceforge.net/DTD/sodipodi-0.dtd"
   xmlns:inkscape="http://www.inkscape.org/namespaces/inkscape"
   version="1.1"
   id="Layer_1"
   x="0px"
   y="0px"
   viewBox="0 0 63.500999 63.5"
   enable-background="new 0 0 612 792"
   xml:space="preserve"
   sodipodi:docname="Icon_RH_Diagram_Financial_RGB_Shiny.svg"
   width="63.500999"
   height="63.5"
   inkscape:version="0.92.1 r"><metadata
     id="metadata62"><rdf:RDF><cc:Work
         rdf:about=""><dc:format>image/svg+xml</dc:format><dc:type
           rdf:resource="http://purl.org/dc/dcmitype/StillImage" /></cc:Work></rdf:RDF></metadata><defs
     id="defs60" /><sodipodi:namedview
     pagecolor="#ffffff"
     bordercolor="#666666"
     borderopacity="1"
     objecttolerance="10"
     gridtolerance="10"
     guidetolerance="10"
     inkscape:pageopacity="0"
     inkscape:pageshadow="2"
     inkscape:window-width="640"
     inkscape:window-height="480"
     id="namedview58"
     showgrid="false"
     inkscape:zoom="0.2979798"
     inkscape:cx="31.095"
     inkscape:cy="31.857"
     inkscape:window-x="0"
     inkscape:window-y="27"
     inkscape:window-maximized="0"
     inkscape:current-layer="Layer_1" /><g
     id="g55"
     transform="translate(-274.905,-364.357)"><linearGradient
       id="SVGID_1_"
       gradientUnits="userSpaceOnUse"
       x1="276.74899"
       y1="366.20071"
       x2="336.56189"
       y2="426.01349"><stop
         offset="0"
         style="stop-color:#E6E6E6"
         id="stop2" /><stop
         offset="0.5"
         style="stop-color:#F7F7F7"
         id="stop4" /><stop
         offset="1"
         style="stop-color:#C4C4C4"
         id="stop6" /></linearGradient><path
       d="m 337.405,423.977 c 0,1.591 -1.289,2.881 -2.88,2.881 h -55.74 c -1.59,0 -2.88,-1.29 -2.88,-2.881 v -55.74 c 0,-1.59 1.29,-2.879 2.88,-2.879 h 55.74 c 1.591,0 2.88,1.289 2.88,2.879 z"
       id="path9"
       inkscape:connector-curvature="0"
       style="fill:url(#SVGID_1_)" /><rect
       x="284.901"
       y="374.353"
       width="21.254"
       height="10.127"
       id="rect11"
       style="fill:none" /><rect
       x="307.155"
       y="374.353"
       width="21.254"
       height="10.127"
       id="rect13"
       style="fill:none" /><rect
       x="284.901"
       y="385.48001"
       width="21.254"
       height="10.127"
       id="rect15"
       style="fill:none" /><rect
       x="284.901"
       y="374.353"
       width="21.254"
       height="10.127"
       id="rect17"
       style="fill:none" /><rect
       x="307.155"
       y="374.353"
       width="21.254"
       height="10.127"
       id="rect19"
       style="fill:none" /><rect
       x="284.901"
       y="385.48001"
       width="21.254"
       height="10.127"
       id="rect21"
       style="fill:none" /><g
       id="g53"><path
         d="m 338.405,388.274 v -20.038 c 0,-2.139 -1.74,-3.879 -3.88,-3.879 h -55.74 c -2.14,0 -3.88,1.74 -3.88,3.879 v 55.74 c 0,2.14 1.74,3.881 3.88,3.881 h 55.74 c 2.14,0 3.88,-1.741 3.88,-3.881 v -35.692 c 0,-0.002 0.001,-0.003 0.001,-0.005 0,-0.002 -0.001,-0.003 -0.001,-0.005 z m -31.25,-21.917 h 21.254 v 6.996 h -21.254 z m 0,7.996 h 21.254 v 10.127 h -21.254 z m -22.254,-7.996 h 21.254 v 6.996 h -21.254 z m 0,7.996 h 21.254 v 10.127 h -21.254 z m 0,11.127 h 21.254 v 10.127 h -21.254 z m -7.996,-17.244 c 0,-1.036 0.844,-1.879 1.88,-1.879 h 5.116 v 6.996 h -6.996 z m 0,6.117 h 6.996 v 10.127 h -6.996 z m 0,11.127 h 6.996 v 10.127 h -6.996 z m 59.5,38.497 c 0,1.037 -0.844,1.881 -1.88,1.881 h -55.74 c -1.036,0 -1.88,-0.844 -1.88,-1.881 v -10.525 h 2.023 c 0.118,0 0.235,-0.02 0.347,-0.061 l 2.772,-1.024 c 0.19,-0.07 0.354,-0.197 0.471,-0.362 l 2.635,-3.741 2.018,-1.062 2.271,1.606 c 0.116,0.083 0.249,0.139 0.39,0.166 l 2.772,0.529 c 0.324,0.06 0.657,-0.04 0.891,-0.272 l 2.338,-2.312 2.192,0.722 c 0.436,0.142 0.92,-0.031 1.164,-0.426 l 2.338,-3.791 1.999,0.764 c 0.345,0.131 0.739,0.061 1.018,-0.185 l 2.279,-2.014 2.177,1.031 c 0.497,0.235 1.093,0.023 1.331,-0.475 l 2.238,-4.702 1.791,1.388 c 0.215,0.166 0.489,0.245 0.756,0.199 0.268,-0.038 0.51,-0.185 0.668,-0.405 l 2.383,-3.312 2.07,0.488 2.772,0.812 c 0.402,0.118 0.842,-0.029 1.09,-0.372 l 2.421,-3.328 2.18,0.3 c 0.34,0.05 0.675,-0.082 0.896,-0.341 l 2.611,-3.056 2.364,-0.936 h 1.832 v 34.697 z m 0,-36.698 h -2.023 c -0.126,0 -0.251,0.023 -0.368,0.07 l -2.772,1.099 c -0.151,0.06 -0.286,0.156 -0.392,0.28 l -2.418,2.828 -2.231,-0.307 c -0.37,-0.053 -0.729,0.104 -0.945,0.402 l -2.358,3.243 -2.148,-0.629 -2.773,-0.655 c -0.395,-0.092 -0.805,0.062 -1.041,0.39 l -2.168,3.014 -1.953,-1.514 c -0.238,-0.186 -0.55,-0.254 -0.844,-0.183 -0.295,0.07 -0.541,0.27 -0.672,0.543 l -2.343,4.923 -1.871,-0.886 c -0.361,-0.17 -0.79,-0.11 -1.09,0.155 l -2.32,2.049 -2.207,-0.843 c -0.446,-0.168 -0.956,0.001 -1.208,0.41 l -2.357,3.824 -2.024,-0.667 c -0.357,-0.116 -0.748,-0.025 -1.016,0.239 l -2.398,2.372 -2.043,-0.39 -2.596,-1.836 c -0.307,-0.217 -0.709,-0.244 -1.043,-0.068 l -2.772,1.461 c -0.141,0.074 -0.261,0.18 -0.352,0.309 l -2.595,3.684 -2.312,0.854 h -1.845 v -3.718 h 4.951 l 0.705,-1 h -5.656 v -10.127 h 6.996 v 8.924 l 1,-0.526 v -8.398 h 21.254 v 2.28 c 0.328,-0.085 0.667,-0.087 1,-10e-4 v -2.279 h 2.681 l 0.476,-1 h -3.156 V 385.48 h 21.254 v 4.564 l 1,-1.171 v -3.393 h 6.996 v 1.799 z m 0,-2.799 h -6.996 v -10.127 h 6.996 z m 0,-11.127 h -6.996 v -6.996 h 5.116 c 1.036,0 1.88,0.843 1.88,1.879 z"
         id="path23"
         inkscape:connector-curvature="0" /><path
         d="m 280.507,417.861 h -1.025 c -0.276,0 -0.5,0.224 -0.5,0.5 0,0.276 0.224,0.5 0.5,0.5 h 1.025 c 0.276,0 0.5,-0.224 0.5,-0.5 0,-0.276 -0.224,-0.5 -0.5,-0.5 z"
         id="path25"
         inkscape:connector-curvature="0" /><path
         d="m 309.219,417.861 h -1.025 c -0.276,0 -0.5,0.224 -0.5,0.5 0,0.276 0.224,0.5 0.5,0.5 h 1.025 c 0.276,0 0.5,-0.224 0.5,-0.5 0,-0.276 -0.224,-0.5 -0.5,-0.5 z"
         id="path27"
         inkscape:connector-curvature="0" /><path
         d="m 313.32,417.861 h -1.025 c -0.276,0 -0.5,0.224 -0.5,0.5 0,0.276 0.224,0.5 0.5,0.5 h 1.025 c 0.276,0 0.5,-0.224 0.5,-0.5 0,-0.276 -0.223,-0.5 -0.5,-0.5 z"
         id="path29"
         inkscape:connector-curvature="0" /><path
         d="m 321.523,417.861 h -1.025 c -0.276,0 -0.5,0.224 -0.5,0.5 0,0.276 0.224,0.5 0.5,0.5 h 1.025 c 0.276,0 0.5,-0.224 0.5,-0.5 0,-0.276 -0.223,-0.5 -0.5,-0.5 z"
         id="path31"
         inkscape:connector-curvature="0" /><path
         d="m 317.422,417.861 h -1.025 c -0.276,0 -0.5,0.224 -0.5,0.5 0,0.276 0.224,0.5 0.5,0.5 h 1.025 c 0.276,0 0.5,-0.224 0.5,-0.5 0,-0.276 -0.224,-0.5 -0.5,-0.5 z"
         id="path33"
         inkscape:connector-curvature="0" /><path
         d="M 325.626,417.861 H 324.6 c -0.276,0 -0.5,0.224 -0.5,0.5 0,0.276 0.224,0.5 0.5,0.5 h 1.026 c 0.276,0 0.5,-0.224 0.5,-0.5 0,-0.276 -0.224,-0.5 -0.5,-0.5 z"
         id="path35"
         inkscape:connector-curvature="0" /><path
         d="m 329.727,417.861 h -1.025 c -0.276,0 -0.5,0.224 -0.5,0.5 0,0.276 0.224,0.5 0.5,0.5 h 1.025 c 0.276,0 0.5,-0.224 0.5,-0.5 0,-0.276 -0.223,-0.5 -0.5,-0.5 z"
         id="path37"
         inkscape:connector-curvature="0" /><path
         d="m 333.829,417.861 h -1.025 c -0.276,0 -0.5,0.224 -0.5,0.5 0,0.276 0.224,0.5 0.5,0.5 h 1.025 c 0.276,0 0.5,-0.224 0.5,-0.5 0,-0.276 -0.224,-0.5 -0.5,-0.5 z"
         id="path39"
         inkscape:connector-curvature="0" /><path
         d="m 292.811,417.861 h -1.025 c -0.276,0 -0.5,0.224 -0.5,0.5 0,0.276 0.224,0.5 0.5,0.5 h 1.025 c 0.276,0 0.5,-0.224 0.5,-0.5 0,-0.276 -0.223,-0.5 -0.5,-0.5 z"
         id="path41"
         inkscape:connector-curvature="0" /><path
         d="m 284.608,417.861 h -1.025 c -0.276,0 -0.5,0.224 -0.5,0.5 0,0.276 0.224,0.5 0.5,0.5 h 1.025 c 0.276,0 0.5,-0.224 0.5,-0.5 0,-0.276 -0.223,-0.5 -0.5,-0.5 z"
         id="path43"
         inkscape:connector-curvature="0" /><path
         d="m 288.71,417.861 h -1.025 c -0.276,0 -0.5,0.224 -0.5,0.5 0,0.276 0.224,0.5 0.5,0.5 h 1.025 c 0.276,0 0.5,-0.224 0.5,-0.5 0,-0.276 -0.224,-0.5 -0.5,-0.5 z"
         id="path45"
         inkscape:connector-curvature="0" /><path
         d="m 305.117,417.861 h -1.025 c -0.276,0 -0.5,0.224 -0.5,0.5 0,0.276 0.224,0.5 0.5,0.5 h 1.025 c 0.276,0 0.5,-0.224 0.5,-0.5 0,-0.276 -0.223,-0.5 -0.5,-0.5 z"
         id="path47"
         inkscape:connector-curvature="0" /><path
         d="m 301.016,417.861 h -1.025 c -0.276,0 -0.5,0.224 -0.5,0.5 0,0.276 0.224,0.5 0.5,0.5 h 1.025 c 0.276,0 0.5,-0.224 0.5,-0.5 0,-0.276 -0.224,-0.5 -0.5,-0.5 z"
         id="path49"
         inkscape:connector-curvature="0" /><path
         d="m 296.914,417.861 h -1.025 c -0.276,0 -0.5,0.224 -0.5,0.5 0,0.276 0.224,0.5 0.5,0.5 h 1.025 c 0.276,0 0.5,-0.224 0.5,-0.5 0,-0.276 -0.224,-0.5 -0.5,-0.5 z"
         id="path51"
         inkscape:connector-curvature="0" /></g></g></svg>